<?xml version="1.0" standalone="no"?>
<!DOCTYPE svg PUBLIC "-//W3C//DTD SVG 20010904//EN"
 "http://www.w3.org/TR/2001/REC-SVG-20010904/DTD/svg10.dtd">
<svg version="1.0" xmlns="http://www.w3.org/2000/svg"
 width="920.000000pt" height="976.000000pt" viewBox="0 0 920.000000 976.000000"
 preserveAspectRatio="xMidYMid meet">

<g transform="translate(0.000000,976.000000) scale(0.100000,-0.100000)"
fill="#000000" stroke="none">
<path d="M3451 9665 c13 -45 6 -54 -21 -30 -23 21 -24 17 -9 -22 6 -15 12 -36
15 -47 2 -10 10 -26 19 -36 22 -24 12 -28 -58 -24 l-62 3 49 -25 49 -26 -29
-13 c-16 -7 -40 -17 -54 -23 l-25 -11 31 0 c16 -1 38 -7 48 -14 17 -12 17 -17
1 -95 -10 -46 -15 -91 -12 -101 3 -11 -5 -30 -19 -44 -30 -33 -31 -47 -1 -20
12 12 56 38 97 59 l75 39 135 0 c116 0 141 -3 181 -21 79 -37 113 -81 144
-188 l17 -59 62 6 c44 4 65 2 76 -8 9 -8 29 -16 45 -19 17 -3 59 -15 95 -26
78 -24 84 -24 45 -3 -16 10 -33 16 -37 15 -5 -1 -8 3 -8 9 0 6 -7 9 -15 6 -8
-4 -17 -1 -21 5 -4 6 -3 8 4 4 6 -3 13 -2 17 4 3 6 -2 13 -12 17 -10 4 -23 12
-30 18 -6 7 -36 20 -67 29 -64 20 -72 27 -21 19 24 -4 35 -2 35 6 0 7 -3 10
-7 8 -5 -2 -21 2 -38 9 l-30 13 48 1 48 0 -27 25 c-15 14 -33 25 -42 25 -8 0
-12 6 -9 14 4 10 1 13 -9 9 -7 -3 -14 0 -14 6 0 6 -5 10 -11 8 -6 -1 -14 4
-17 12 -3 8 0 11 7 7 6 -4 11 -5 11 -2 0 3 -15 13 -32 23 l-33 17 30 7 c17 4
23 7 14 8 -19 1 -40 23 -43 46 -3 22 -141 133 -201 161 -27 13 -65 27 -82 30
-18 3 -33 10 -33 14 0 14 66 50 91 50 22 1 22 2 6 11 -11 6 -34 8 -54 4 -40
-7 -40 -6 -9 70 l17 40 -23 -30 c-59 -77 -75 -90 -92 -76 -15 13 -15 16 -1 38
16 24 16 24 -4 14 -11 -6 -23 -16 -26 -21 -13 -20 -36 -9 -41 20 -4 16 -11 27
-16 24 -6 -4 -15 0 -20 7 -6 10 -7 6 -2 -10 6 -21 -1 -18 -49 23 l-56 47 10
-36z m225 -237 c29 -10 77 -68 56 -68 -15 0 -33 26 -24 34 4 5 0 7 -8 6 -25
-4 -80 12 -80 23 0 5 -8 3 -17 -5 -10 -9 -28 -21 -40 -27 -19 -10 -23 -9 -23
4 0 17 51 44 84 45 11 0 34 -5 52 -12z m-160 -69 c-8 -19 -15 -29 -15 -22 -1
18 19 67 25 61 3 -3 -2 -21 -10 -39z m368 4 c6 -15 8 -15 16 -3 6 8 10 11 10
5 0 -5 4 -4 9 3 6 10 23 -3 65 -49 31 -34 56 -66 56 -70 0 -9 -56 -1 -76 10
-18 10 -105 121 -95 121 5 0 12 -8 15 -17z m-270 -8 c3 3 1 -2 -6 -9 -16 -18
-74 -34 -64 -18 3 6 3 12 -1 15 -5 2 -2 2 5 1 7 -2 15 3 18 11 4 11 11 12 24
5 9 -5 20 -7 24 -5z m88 -3 c13 -13 3 -16 -42 -12 -30 2 -34 5 -26 19 8 12 53
8 68 -7z m-255 -124 c-3 -8 -6 -5 -6 6 -1 11 2 17 5 13 3 -3 4 -12 1 -19z"/>
<path d="M3945 9320 c10 -11 20 -20 23 -20 3 0 -3 9 -13 20 -10 11 -20 20 -23
20 -3 0 3 -9 13 -20z"/>
<path d="M6400 9305 c-2 -11 -4 -80 -5 -153 0 -74 -5 -136 -10 -140 -10 -7
-12 -24 -17 -159 -2 -40 -7 -73 -11 -73 -5 0 -6 -7 -3 -15 6 -16 -11 -54 -29
-67 -15 -11 -27 3 -21 25 3 11 1 28 -4 38 -7 12 -5 21 5 29 9 8 15 8 15 2 0
-6 -6 -13 -12 -15 -10 -4 -10 -6 -1 -6 7 -1 17 8 23 19 6 11 15 18 20 15 6 -4
7 2 3 11 -4 11 -8 13 -11 6 -2 -7 -15 -12 -28 -12 -24 0 -24 2 -24 86 0 47 4
83 8 80 5 -3 9 1 9 8 0 8 -6 12 -14 9 -8 -3 -13 2 -13 15 0 27 -78 265 -93
286 -10 13 -13 -7 -15 -96 -3 -153 -10 -217 -32 -307 -11 -41 -17 -85 -15 -96
3 -11 -4 -38 -15 -60 -11 -22 -18 -32 -15 -22 6 23 4 23 -46 -24 -30 -27 -40
-42 -31 -48 19 -11 -8 -71 -35 -77 -37 -10 -59 -45 -54 -91 0 -6 12 -25 26
-41 27 -32 25 -43 -6 -35 -17 5 -20 10 -18 30 0 4 -10 11 -23 16 -17 6 -19 10
-9 16 10 6 6 15 -16 36 -15 16 -19 22 -8 14 20 -14 20 -14 0 10 -19 22 -19 23
-2 36 12 8 14 14 6 17 -8 3 -7 9 4 20 15 15 15 17 -1 24 -9 4 -19 8 -22 8 -20
4 -30 19 -21 30 11 13 94 7 135 -10 17 -7 18 -4 12 32 -17 92 -58 134 -130
134 -25 0 -38 -6 -46 -20 -6 -11 -19 -20 -28 -20 -10 0 -28 -9 -41 -21 -12
-11 -29 -18 -37 -15 -7 3 -14 1 -14 -4 0 -6 -6 -10 -13 -10 -8 0 -26 -25 -42
-56 -30 -59 -49 -74 -68 -55 -17 17 -25 14 -42 -19 -9 -16 -13 -30 -9 -30 4 0
1 -6 -5 -13 -6 -8 -8 -17 -4 -20 3 -4 12 -2 20 4 23 19 15 -6 -20 -71 -19 -33
-36 -57 -39 -54 -6 5 -17 -35 -24 -81 -1 -11 -10 -45 -19 -75 -9 -30 -29 -104
-44 -165 -16 -60 -36 -125 -46 -142 -9 -18 -14 -36 -12 -40 3 -5 -1 -33 -8
-63 -11 -44 -13 -49 -14 -23 -1 42 -15 49 -39 18 -11 -14 -24 -25 -29 -25 -11
0 -10 61 2 80 4 7 0 19 -9 28 -9 9 -16 11 -16 5 0 -6 6 -14 13 -16 9 -4 9 -7
0 -14 -7 -5 -16 -19 -21 -32 -6 -17 -10 -20 -14 -10 -5 14 28 170 57 264 8 28
22 77 29 110 8 33 24 87 36 120 12 33 28 81 35 107 8 26 21 60 29 75 8 16 23
44 32 63 26 55 73 121 128 179 36 39 43 50 23 37 -28 -17 -42 -15 -42 6 0 6
-7 13 -15 15 -12 4 -12 3 -2 -5 11 -7 10 -11 -4 -16 -13 -5 -15 -9 -6 -18 17
-17 15 -28 -7 -28 -11 0 -21 -6 -24 -12 -3 -10 -8 -10 -18 1 -9 9 -9 11 -1 7
7 -5 12 -1 12 10 0 10 7 25 16 35 12 13 12 19 3 25 -7 4 -10 3 -6 -3 4 -6 0
-14 -9 -17 -8 -3 -13 -2 -10 3 3 5 -15 8 -39 6 -53 -2 -69 10 -24 19 28 5 30
9 26 38 -3 18 -11 48 -17 67 -11 28 -10 38 4 65 11 20 12 25 3 13 -14 -17 -15
-15 -21 20 -3 21 -8 58 -11 83 -3 25 -11 70 -19 100 -14 55 -15 53 -20 -19 0
-11 -4 -23 -8 -27 -13 -12 -9 -36 4 -28 8 5 9 2 5 -10 -4 -10 -7 -23 -7 -29 0
-7 -4 -6 -10 3 -8 13 -10 12 -10 -2 0 -10 6 -18 13 -18 8 0 7 -4 -3 -10 -10
-6 -11 -10 -2 -10 9 0 11 -18 8 -66 -3 -53 -1 -64 10 -60 7 3 16 1 19 -4 4 -6
-7 -10 -24 -10 -16 0 -32 4 -35 9 -9 14 -44 1 -49 -18 -5 -22 -37 -23 -37 -2
0 12 -4 10 -14 -5 -23 -32 -15 -65 19 -85 l30 -19 -27 0 c-16 0 -37 9 -48 20
-11 11 -20 16 -20 10 0 -5 -7 -6 -17 -3 -12 5 -14 3 -8 -7 6 -9 4 -11 -5 -5
-8 5 -24 9 -36 10 -18 0 -20 -2 -11 -16 6 -9 18 -15 26 -12 13 4 13 3 2 -5 -9
-7 -10 -12 -2 -16 6 -4 11 -12 11 -18 0 -6 -10 2 -22 18 -42 55 -47 57 -47 27
-1 -58 -14 -112 -31 -128 -17 -16 -18 -15 -7 27 6 24 11 55 11 70 1 14 4 24 9
21 14 -9 7 7 -13 27 -11 11 -20 15 -20 9 0 -8 -5 -8 -15 1 -12 10 -15 9 -15
-6 -1 -24 -22 -52 -36 -47 -6 2 -25 -17 -43 -42 -18 -26 -35 -44 -38 -42 -8 8
70 113 139 186 37 40 62 71 55 69 -7 -1 -22 3 -34 10 -18 10 -20 9 -17 -6 3
-10 -4 -22 -17 -30 -17 -11 -20 -11 -14 0 5 7 -11 -5 -34 -27 -22 -21 -41 -45
-41 -52 0 -7 -4 -13 -9 -13 -22 0 -258 -343 -269 -391 -2 -8 -10 -18 -19 -22
-8 -5 -44 -55 -80 -110 -36 -56 -67 -104 -69 -106 -2 -2 -11 2 -19 9 -13 11
-18 10 -30 -6 -8 -10 -17 -34 -21 -52 -3 -18 -11 -31 -18 -29 -13 4 -36 -37
-36 -67 -1 -32 -46 -79 -70 -71 -16 5 -17 10 -10 31 5 13 6 24 2 24 -4 0 0 5
8 11 13 9 13 10 0 6 -8 -2 -16 -13 -18 -25 -2 -12 -8 -22 -13 -22 -5 0 -9 -7
-9 -15 0 -8 7 -15 15 -15 8 0 15 -4 15 -9 0 -5 -9 -7 -20 -4 -12 3 -20 0 -20
-8 0 -7 -3 -9 -7 -6 -3 4 -13 1 -21 -6 -22 -18 17 55 99 186 89 142 179 267
202 281 21 13 22 26 2 26 -17 0 -21 25 -5 35 5 3 30 33 56 66 l46 60 -30 -6
c-19 -3 -48 3 -75 14 -25 11 -59 22 -77 24 -28 5 -30 3 -25 -16 3 -12 -8 3
-25 35 -34 59 -65 77 -104 56 -14 -8 -22 -6 -35 8 -15 17 -15 17 2 5 27 -21
33 -4 6 18 -30 25 -39 26 -39 4 -1 -15 -3 -14 -13 4 -10 17 -15 19 -27 10 -9
-7 -16 -24 -17 -39 -6 -96 -4 -130 7 -142 6 -8 10 -27 8 -43 -4 -27 -5 -26
-27 20 -23 48 -38 63 -26 26 5 -14 3 -19 -3 -15 -6 3 -21 -4 -34 -16 -22 -21
-23 -26 -11 -48 7 -14 13 -33 13 -43 0 -11 9 -30 20 -44 11 -14 20 -31 20 -37
0 -6 -9 2 -19 18 l-20 29 -7 -61 c-8 -72 -30 -85 -32 -19 -1 23 -2 56 -3 72
-1 17 2 48 6 69 6 27 5 37 -3 33 -6 -4 -8 0 -6 10 6 23 -19 58 -35 49 -6 -4
-9 -11 -6 -16 12 -20 -35 4 -61 31 -15 16 -38 29 -50 29 -13 0 -26 5 -29 10
-4 7 -13 7 -26 0 -26 -14 -24 -30 2 -23 19 5 20 4 9 -16 -9 -17 -14 -20 -25
-11 -11 9 -19 4 -37 -24 -26 -41 -30 -42 -63 -20 -15 9 -32 13 -45 9 -35 -11
-22 37 15 54 16 8 24 16 17 19 -18 6 -98 -49 -117 -82 -17 -27 -20 -28 -70
-21 -41 5 -54 3 -58 -8 -4 -11 3 -14 33 -12 20 1 50 -4 66 -11 26 -11 21 -12
-58 -13 -48 -1 -90 3 -93 9 -3 6 -11 10 -17 10 -6 0 -4 -8 5 -18 21 -23 22
-33 2 -26 -14 6 -20 -5 -16 -34 1 -8 -5 -25 -14 -39 -9 -13 -14 -31 -11 -39 3
-8 0 -13 -7 -11 -7 1 -11 -4 -9 -10 1 -7 -3 -13 -9 -13 -7 0 -8 7 -4 18 11 26
16 140 6 123 -5 -8 -19 -16 -31 -18 -19 -3 -21 0 -16 20 3 13 1 39 -4 58 -5
19 -11 54 -13 79 -3 35 -8 44 -21 42 -22 -4 -32 26 -17 50 10 16 10 19 -1 16
-7 -2 -19 -24 -27 -48 -10 -31 -21 -46 -42 -53 -15 -6 -33 -21 -40 -34 -7 -13
-20 -23 -29 -23 -17 0 -70 -85 -70 -113 0 -9 -12 -22 -27 -29 -30 -15 -42 -38
-20 -38 16 0 17 -19 2 -73 -5 -20 -12 -26 -25 -22 -9 3 -23 -1 -30 -10 -10
-13 -9 -15 9 -15 16 0 21 -6 21 -25 0 -14 -1 -27 -2 -29 -2 -2 6 -14 17 -27
15 -18 15 -20 2 -10 -15 12 -17 11 -17 -13 0 -27 15 -35 23 -13 4 9 6 9 6 -1
1 -7 -4 -23 -10 -34 -9 -17 -9 -20 4 -15 14 5 19 -6 30 -75 2 -10 7 -21 11
-25 9 -8 5 18 -10 67 -4 14 -3 22 1 18 5 -4 14 -3 22 4 11 9 18 8 31 -5 9 -10
11 -17 5 -17 -7 0 -5 -18 8 -52 10 -29 19 -60 19 -69 0 -9 9 -27 20 -40 l21
-24 -5 35 -5 35 10 -35 c6 -19 14 -42 17 -50 3 -8 7 -19 7 -25 2 -13 12 -39
41 -104 27 -60 21 -81 -22 -73 -24 4 -26 8 -21 42 3 21 1 43 -3 50 -11 18 -22
-4 -16 -33 2 -13 0 -30 -5 -38 -5 -8 -9 -9 -9 -4 0 6 -5 3 -10 -5 -7 -12 -11
-10 -19 10 -7 18 -8 4 -4 -51 4 -52 2 -78 -6 -83 -7 -5 -11 3 -11 21 0 17 -8
34 -20 43 l-20 15 20 15 c14 10 19 22 14 33 -5 14 -9 15 -20 6 -11 -9 -14 -8
-14 4 0 9 -9 19 -20 22 -11 4 -26 18 -33 33 -26 53 -71 201 -64 209 5 4 12 1
17 -7 8 -12 13 -13 30 -2 26 16 30 15 30 -5 0 -17 47 -103 56 -103 3 0 2 5 -2
12 -12 19 -16 80 -4 73 6 -3 8 -10 5 -15 -3 -5 -1 -11 4 -15 6 -3 9 9 7 32 -5
58 -14 74 -41 67 -18 -4 -24 0 -29 22 -9 35 -23 16 -20 -26 1 -17 -2 -33 -7
-36 -10 -6 -33 13 -42 36 -4 11 -6 10 -6 -4 -1 -11 -4 -16 -8 -13 -3 4 -16 -1
-27 -10 -20 -17 -20 -17 -7 0 11 14 11 17 -2 17 -8 0 -22 -10 -32 -22 -16 -22
-16 -22 -1 4 12 20 12 28 3 31 -6 3 6 4 28 2 22 -2 34 -1 28 1 -9 4 -5 16 13
40 15 18 30 32 34 29 5 -3 11 -1 15 5 3 5 0 10 -9 10 -8 0 -16 3 -19 8 -2 4
-2 1 -1 -6 2 -7 -3 -15 -11 -18 -8 -4 -15 -10 -15 -15 0 -14 -33 -48 -42 -43
-4 3 -1 16 8 30 15 22 15 24 0 18 -9 -3 -14 -9 -11 -13 2 -4 -5 -15 -16 -24
-11 -10 -17 -21 -14 -26 4 -8 -14 -20 -30 -21 -3 0 -19 -7 -35 -15 -30 -15
-30 -15 -18 4 7 11 9 23 5 27 -11 11 -56 -36 -50 -52 3 -8 0 -14 -6 -14 -15 0
-14 11 5 66 8 25 13 48 10 51 -3 3 -8 -3 -12 -13 -3 -10 -10 -29 -15 -42 -5
-13 -9 -31 -9 -42 0 -19 -8 -23 -68 -35 -18 -4 -30 -10 -27 -15 3 -5 -6 -7
-20 -4 -14 2 -55 -2 -91 -11 -77 -18 -77 -18 -70 -6 3 5 -2 11 -12 14 -9 2
-25 8 -35 12 -12 5 -17 3 -17 -8 0 -8 -7 -18 -15 -21 -14 -5 -14 -9 -1 -35 9
-16 29 -40 46 -53 17 -12 54 -43 83 -68 29 -25 66 -55 83 -67 31 -22 31 -23
36 -133 3 -60 10 -116 16 -123 13 -15 -18 -57 -42 -57 -9 0 -16 -4 -16 -10 0
-5 10 -10 23 -10 42 0 61 -27 72 -104 6 -35 18 -61 43 -90 77 -89 211 -221
278 -275 l71 -58 -20 -24 c-10 -13 -25 -32 -32 -42 -12 -18 -15 -18 -45 -2
-35 18 -64 12 -109 -25 -27 -23 -22 -46 13 -60 13 -5 26 -13 29 -17 3 -5 -22
-38 -56 -75 -58 -62 -157 -205 -157 -226 0 -5 -16 -33 -36 -62 -20 -29 -41
-68 -46 -87 -5 -18 -12 -33 -16 -33 -12 0 -46 84 -44 107 2 16 -8 29 -33 45
-19 13 -39 37 -45 53 -5 17 -28 56 -50 89 -22 32 -40 65 -40 73 0 7 14 59 30
115 17 55 30 107 30 114 0 22 -37 -5 -61 -43 -12 -18 -25 -33 -31 -33 -7 0 -7
4 0 13 11 13 52 151 52 175 0 9 -6 8 -25 -4 -14 -9 -22 -20 -19 -25 3 -5 0 -9
-7 -9 -9 0 -9 -3 0 -14 14 -16 0 -29 -22 -21 -11 5 -13 -5 -11 -57 3 -50 1
-66 -13 -75 -9 -7 -14 -16 -10 -19 7 -8 -11 -34 -23 -34 -4 0 -10 7 -14 15 -3
8 0 14 6 12 6 -1 14 10 19 26 4 16 4 25 -2 21 -6 -3 -7 11 -3 35 5 31 1 50
-15 81 -17 32 -19 45 -10 61 14 26 8 41 -18 45 -15 3 -24 -3 -28 -17 -4 -11
-14 -19 -23 -17 -25 4 -42 -10 -43 -35 -1 -16 -3 -17 -6 -5 -6 22 14 58 31 58
8 0 16 7 19 14 4 9 1 13 -6 10 -16 -6 -34 39 -41 105 -5 54 -26 96 -26 54 0
-11 -7 -43 -16 -71 -18 -54 -15 -52 -106 -68 -32 -5 -38 -3 -53 20 -10 14 -22
26 -28 26 -5 0 -33 18 -62 40 -58 44 -112 70 -150 70 -24 0 -21 -6 45 -82 38
-46 70 -90 70 -99 0 -9 7 -22 16 -29 33 -28 34 -45 4 -121 -34 -85 -36 -101
-15 -93 8 4 15 13 15 21 0 20 45 84 53 76 4 -3 7 -1 7 5 0 8 19 12 54 12 47 0
58 -4 87 -32 19 -18 35 -40 37 -48 2 -8 9 -19 15 -23 9 -6 9 -10 -1 -14 -6 -2
-9 -10 -6 -16 5 -8 2 -8 -7 1 -16 15 -29 16 -29 1 0 -5 6 -7 13 -3 6 4 2 -3
-11 -15 -12 -12 -19 -27 -16 -33 5 -8 1 -9 -10 -5 -42 16 -154 46 -187 50
l-36 4 0 -46 c0 -55 -17 -166 -31 -202 -8 -19 -7 -30 1 -38 16 -16 40 -14 34
3 -4 10 -1 13 8 10 7 -3 16 -17 19 -30 4 -14 18 -30 31 -36 14 -6 25 -18 25
-27 0 -14 2 -14 10 -1 8 12 10 12 10 1 0 -11 3 -11 15 -1 13 11 13 8 0 -29 -8
-23 -18 -47 -22 -54 -4 -7 -8 -14 -8 -17 0 -3 -22 -48 -49 -98 -50 -94 -105
-161 -148 -182 l-23 -11 22 17 c13 9 23 23 23 31 0 8 4 12 9 8 5 -3 12 -1 15
4 3 5 -3 11 -14 14 -11 3 -20 1 -20 -4 0 -5 -11 -11 -25 -15 -21 -5 -23 -9
-14 -20 10 -12 8 -13 -6 -8 -13 6 -16 4 -10 -5 5 -10 2 -11 -14 -6 -28 9 -27
-3 2 -15 l22 -9 -22 0 c-29 -1 -63 46 -93 128 -22 60 -24 62 -36 40 -12 -24
-1 -44 18 -33 8 5 21 -35 18 -57 -5 -34 1 -70 10 -64 12 8 13 -18 1 -30 -5 -6
-11 -19 -13 -30 -2 -12 -12 -20 -26 -21 -39 -2 -42 -4 -42 -21 0 -15 2 -16 10
-3 5 8 10 11 10 6 0 -5 7 -3 15 4 9 8 15 8 15 2 0 -6 -6 -12 -12 -15 -10 -4
-10 -7 0 -18 6 -7 12 -20 12 -28 0 -13 -2 -13 -9 -2 -7 11 -10 11 -17 -1 -9
-16 -54 -31 -54 -19 0 4 6 13 13 20 10 10 9 11 -4 6 -10 -4 -19 0 -23 10 -3 9
-10 14 -15 10 -5 -3 -13 0 -16 6 -4 6 2 13 14 16 12 3 21 12 21 19 0 16 17 19
22 3 2 -6 15 1 30 14 15 14 29 23 32 20 2 -3 2 5 -1 17 l-6 22 -14 -23 c-14
-24 -14 -24 -10 -1 3 12 1 20 -4 16 -5 -3 -16 -1 -25 4 -11 6 -13 11 -5 16 6
4 11 1 11 -6 0 -11 2 -11 9 0 4 7 17 14 29 15 11 0 18 5 15 10 -3 4 -11 6 -19
3 -24 -9 -34 26 -18 64 22 53 0 23 -34 -45 -61 -121 -112 -317 -133 -510 -25
-238 11 -597 66 -655 14 -14 28 -41 31 -60 11 -56 42 -110 59 -104 11 5 15 -1
15 -20 0 -29 56 -90 76 -82 6 2 18 -4 27 -14 9 -11 35 -25 59 -32 54 -16 247
-15 279 2 12 7 39 14 60 15 46 4 280 83 294 100 6 7 23 12 38 12 16 0 33 5 38
10 7 7 -9 88 -45 234 -30 123 -60 260 -66 304 -7 44 -16 102 -22 129 -10 48
-11 49 -24 25 -16 -28 -18 -56 -5 -61 15 -5 -6 -95 -34 -141 -34 -57 -44 -68
-87 -101 -56 -42 -138 -42 -138 0 0 8 -4 12 -10 9 -5 -3 -10 -1 -10 5 0 6 -4
8 -10 5 -5 -3 -10 3 -10 14 0 26 -17 36 -23 14 -4 -14 -5 -13 -6 4 0 12 -6 25
-11 28 -7 4 -7 12 0 25 13 24 13 33 0 25 -8 -5 -8 15 0 45 2 8 23 -44 21 -53
-1 -5 3 -6 8 -3 6 4 4 20 -5 42 -30 71 -13 259 32 375 53 133 182 258 228 220
24 -20 46 -78 54 -138 4 -32 11 -57 15 -56 5 1 55 45 113 98 57 53 108 94 113
91 4 -3 11 -19 14 -35 5 -24 13 -31 41 -36 28 -6 35 -12 38 -36 3 -20 -1 -34
-14 -46 -20 -18 -25 -4 -5 16 10 11 8 11 -9 0 -18 -10 -20 -16 -11 -30 8 -13
16 -15 28 -8 24 13 39 11 39 -4 0 -7 14 -24 30 -39 33 -29 38 -49 16 -68 -12
-9 -17 -8 -27 8 -7 11 -19 18 -26 15 -7 -3 -13 0 -13 6 0 23 -21 10 -31 -19
-6 -16 -17 -30 -25 -30 -28 0 -120 42 -147 68 -15 14 -27 21 -27 15 0 -6 7
-16 16 -23 17 -15 41 -55 26 -47 -10 7 -32 -35 -32 -63 0 -10 5 -22 10 -25 6
-3 10 -2 10 4 0 6 7 8 15 5 8 -4 12 -10 9 -15 -3 -5 2 -9 11 -9 9 0 14 -4 11
-9 -3 -5 1 -14 9 -21 8 -7 15 -17 15 -22 0 -6 -7 -5 -15 2 -13 11 -14 10 -9
-3 3 -9 15 -19 25 -22 11 -4 40 -25 66 -47 26 -22 56 -45 68 -50 12 -5 30 -25
39 -44 17 -36 31 -45 107 -64 70 -18 155 -82 170 -128 20 -63 28 -67 67 -30
22 22 31 26 24 13 -6 -12 -13 -40 -17 -64 -3 -24 -10 -53 -15 -66 -5 -13 -9
-40 -10 -62 -1 -21 -3 -63 -5 -93 -3 -30 -5 -70 -6 -87 -2 -18 -5 -31 -7 -28
-3 3 -16 -2 -28 -10 -22 -14 -23 -14 -17 2 3 10 10 23 15 29 5 7 10 30 13 52
3 38 2 40 -15 30 -10 -7 -16 -16 -14 -20 8 -12 -11 -9 -24 4 -14 14 -16 0 -3
-21 11 -17 -6 -60 -30 -78 -10 -8 -16 -23 -15 -38 2 -15 -1 -22 -7 -18 -6 4
-8 0 -4 -10 4 -11 1 -17 -8 -17 -9 0 -15 -9 -15 -21 0 -17 8 -11 42 30 23 28
46 51 51 51 5 0 5 -6 -1 -13 -8 -10 1 -17 40 -31 69 -24 112 -67 110 -111 -1
-29 1 -32 21 -29 13 2 16 1 7 -2 -8 -4 -18 -11 -21 -17 -12 -18 -41 1 -34 23
3 11 2 20 -3 20 -5 0 -7 12 -4 28 5 25 4 26 -14 12 -10 -7 -23 -19 -29 -25 -5
-6 -23 -20 -39 -33 -31 -23 -28 -29 6 -11 17 9 19 8 15 -8 -3 -10 -8 -35 -12
-55 -4 -28 -13 -42 -35 -53 -15 -8 -30 -18 -32 -22 -3 -5 -3 -2 -2 5 2 6 -6
12 -17 12 -16 0 -18 -3 -9 -19 8 -16 6 -20 -8 -24 -14 -3 -13 -6 7 -14 l25
-10 -27 -7 c-16 -4 -27 -13 -27 -24 0 -15 -2 -15 -11 -2 -9 12 -10 12 -5 -3 3
-10 6 -21 6 -23 0 -3 6 -2 13 2 7 5 6 1 -2 -10 -14 -16 -16 -16 -27 -2 -15 21
-25 21 -17 0 3 -9 0 -20 -8 -25 -12 -8 -11 -12 5 -24 11 -8 15 -15 10 -15 -6
0 -15 5 -21 11 -8 8 -13 5 -18 -10 -7 -24 -25 -19 -25 6 0 9 -7 24 -16 34 -8
9 -14 28 -12 41 l5 23 11 -25 c6 -14 11 -18 12 -10 0 13 1 13 10 0 6 -9 10
-10 10 -3 0 7 -8 17 -19 22 -25 14 -33 59 -14 87 8 13 10 25 5 28 -12 7 -24
-7 -56 -71 -23 -47 -26 -64 -26 -162 0 -87 4 -118 20 -152 11 -24 20 -60 20
-79 0 -19 11 -59 25 -88 14 -30 25 -63 25 -74 0 -23 15 -55 40 -83 20 -23 35
-115 19 -115 -6 0 -7 -4 -4 -10 3 -5 -2 -10 -11 -10 -10 0 -14 -3 -11 -6 4 -4
-8 -14 -26 -23 -17 -9 -31 -22 -30 -27 1 -6 -13 -20 -32 -30 -19 -10 -36 -25
-37 -34 0 -8 -2 -20 -2 -27 -1 -6 -10 -21 -20 -32 -19 -21 -19 -21 0 -21 17 0
16 -3 -6 -20 -20 -16 -21 -19 -5 -14 18 6 17 4 -5 -21 -14 -16 -19 -25 -12
-21 18 10 15 -19 -3 -34 -21 -17 -12 -24 14 -10 20 10 32 -2 13 -14 -11 -6
-74 -96 -68 -96 3 0 14 10 26 22 19 21 20 21 20 2 0 -10 -7 -28 -15 -38 -26
-34 -16 -41 15 -11 16 16 32 26 35 23 3 -2 -6 -15 -20 -28 -28 -26 -35 -51 -8
-29 15 13 15 11 9 -25 -7 -37 -6 -39 10 -25 16 13 17 12 10 -14 -5 -20 -3 -27
5 -22 8 5 9 1 4 -14 -4 -14 -1 -23 9 -27 9 -3 16 -13 16 -21 0 -10 6 -12 20
-8 17 5 20 2 20 -22 1 -24 2 -26 11 -10 10 16 12 16 29 -5 11 -13 19 -17 20
-10 0 24 25 12 39 -20 l14 -31 18 22 c18 22 18 21 16 -41 -1 -35 2 -80 6 -100
8 -37 7 -38 -23 -38 -48 0 -70 -16 -70 -51 0 -17 5 -39 11 -51 12 -23 66 -48
104 -48 26 0 25 1 30 -75 0 -11 4 -30 9 -43 5 -16 2 -29 -13 -48 -34 -43 -28
-69 19 -88 24 -10 40 -22 38 -30 -2 -8 12 -28 30 -45 l33 -32 -31 -27 c-21
-19 -30 -35 -30 -58 0 -30 -3 -33 -49 -44 -27 -6 -57 -20 -67 -31 -9 -10 -30
-19 -45 -19 -41 0 -78 -17 -121 -55 -22 -20 -44 -32 -52 -29 -29 11 -127 -27
-204 -79 -42 -29 -90 -58 -105 -65 -16 -7 -34 -27 -42 -45 -13 -32 -19 -35
-92 -50 -43 -9 -95 -19 -116 -23 -20 -3 -37 -10 -37 -14 0 -11 59 -60 71 -60
15 0 119 -101 119 -116 0 -7 15 -45 34 -86 19 -40 38 -86 41 -101 11 -41 49
-55 186 -66 254 -21 1070 -9 1324 19 50 5 151 14 225 20 280 22 399 42 471 81
33 17 50 71 43 132 l-6 53 51 46 c28 26 72 59 96 75 25 15 45 31 45 36 0 17
-42 46 -77 53 -21 3 -52 17 -70 30 -17 13 -40 24 -50 24 -12 0 -24 15 -37 47
-11 26 -40 67 -65 92 l-46 44 0 83 c0 72 -3 85 -23 107 -13 14 -20 30 -16 40
6 15 -23 72 -77 152 -14 22 -30 54 -33 72 -4 17 -14 37 -22 44 -8 7 -12 20 -9
30 4 11 0 32 -8 48 -14 27 -13 31 4 47 12 11 19 31 19 53 0 51 26 131 52 158
19 20 20 30 15 97 -8 87 0 136 20 136 7 0 13 6 12 13 -5 39 2 66 16 61 9 -4
16 3 21 20 3 14 11 23 17 19 6 -4 8 4 5 21 -4 21 -2 26 9 21 12 -4 14 1 11 20
-4 17 -1 25 8 25 17 0 18 16 3 25 -6 4 -8 14 -5 22 4 9 1 22 -5 29 -9 11 -8
14 5 14 19 0 20 4 5 32 -8 15 -8 22 1 28 7 5 0 15 -22 29 -32 22 -21 24 27 6
16 -7 14 -2 -9 23 l-28 30 23 4 c23 4 23 4 -8 24 -18 11 -30 24 -26 27 3 4 0
7 -8 7 -9 0 -24 7 -35 15 -18 15 -17 16 16 9 35 -6 35 -6 15 14 -11 11 -24 17
-30 15 -5 -2 -2 2 7 10 16 13 16 15 -10 27 -18 8 -22 14 -13 18 10 3 7 8 -10
18 -22 12 -22 13 -4 14 17 1 16 3 -7 16 -15 8 -32 23 -37 33 -6 10 -26 22 -46
25 -19 4 -35 11 -35 16 0 8 -66 26 -82 22 -3 -1 -16 19 -28 43 -47 98 -152
184 -222 185 -50 0 -29 17 50 40 42 12 94 31 114 41 48 24 48 24 48 -10 0 -34
17 -41 108 -41 l62 0 0 -33 c0 -20 8 -41 18 -50 23 -21 32 -21 32 -1 0 11 8
14 26 12 38 -4 51 -30 37 -68 -11 -29 -11 -30 15 -24 15 3 32 7 39 9 29 9 67
-55 78 -130 9 -65 13 -70 37 -49 11 11 32 17 52 16 28 -2 39 4 60 30 38 47 40
50 79 86 19 17 42 32 51 32 8 0 18 4 21 10 3 5 16 9 28 9 12 -1 50 2 85 6 40
5 71 4 85 -3 27 -13 77 -21 78 -13 4 35 13 192 13 249 0 39 2 72 3 72 1 0 10
-16 19 -35 9 -19 38 -53 64 -75 40 -34 49 -47 54 -85 8 -53 43 -156 81 -240
15 -33 29 -80 30 -105 2 -54 -25 -155 -73 -270 -30 -70 -37 -101 -41 -180 l-6
-95 -43 -13 c-23 -8 -40 -17 -37 -21 2 -5 -7 -13 -21 -20 -14 -6 -23 -15 -20
-19 3 -5 -8 -16 -24 -26 -17 -9 -33 -29 -36 -44 -4 -15 -11 -32 -16 -39 -5 -7
-7 -17 -3 -23 4 -6 1 -17 -5 -25 -7 -8 -9 -15 -5 -15 5 0 0 -9 -10 -20 -12
-13 -14 -20 -5 -20 9 0 8 -7 -4 -25 -22 -34 -20 -40 9 -21 31 20 33 3 3 -18
-12 -9 -19 -16 -15 -16 4 0 0 -11 -9 -25 -9 -14 -12 -25 -6 -25 6 0 13 6 16
13 9 17 0 -34 -9 -58 -7 -18 -5 -17 18 4 32 29 35 20 6 -20 -17 -24 -17 -28
-4 -22 15 5 16 1 10 -27 -6 -26 -4 -32 7 -28 10 4 14 -3 15 -30 1 -21 8 -39
17 -44 9 -5 16 -15 16 -23 0 -9 6 -12 15 -9 11 4 15 -1 16 -17 0 -15 3 -18 6
-10 4 10 14 -1 29 -30 13 -24 23 -38 24 -31 0 25 19 11 26 -21 l7 -32 13 35
14 35 -3 -37 c-2 -25 0 -35 7 -28 16 16 26 12 26 -11 0 -16 4 -19 21 -14 23 7
23 -1 5 -46 -9 -22 31 -69 95 -110 43 -27 50 -36 46 -57 -3 -13 4 -44 15 -69
11 -24 18 -55 16 -68 -2 -15 4 -29 16 -38 18 -13 18 -15 -3 -55 -11 -23 -21
-57 -21 -76 0 -34 12 -49 66 -82 16 -10 17 -15 7 -33 -11 -18 -9 -28 18 -72
l30 -52 -45 -46 c-30 -31 -57 -74 -81 -128 -41 -95 -44 -125 -12 -146 l22 -15
-22 -21 c-13 -12 -23 -30 -23 -40 0 -10 -11 -26 -25 -35 -29 -19 -31 -46 -13
-125 9 -40 9 -56 -1 -75 -9 -16 -11 -40 -7 -72 l7 -49 -122 -57 c-99 -47 -120
-60 -110 -71 6 -8 63 -33 127 -57 99 -37 118 -48 131 -74 9 -17 32 -50 51 -73
44 -55 87 -68 281 -87 344 -34 440 -38 756 -33 279 4 341 8 480 30 88 14 167
28 175 31 22 9 35 33 53 97 14 46 28 66 82 117 36 34 65 66 65 71 0 6 -30 35
-66 66 -76 64 -112 111 -130 173 -8 24 -27 54 -44 68 -24 20 -30 34 -30 63 0
21 -7 60 -15 87 -8 27 -15 72 -15 100 0 73 -15 108 -66 149 -74 61 -74 61 -74
131 0 36 -6 79 -13 97 -14 32 -33 123 -40 187 -3 22 3 49 16 73 28 55 20 133
-18 163 -15 12 -23 24 -17 28 12 7 -23 129 -38 134 -6 2 -10 10 -10 18 0 8 -4
14 -9 14 -5 0 2 21 17 47 22 39 27 60 26 114 l0 67 28 -21 c37 -27 124 -35
165 -13 17 8 42 30 55 47 12 17 48 59 79 92 30 34 61 76 68 94 7 17 22 40 33
50 32 29 68 90 68 117 0 14 7 29 15 33 44 25 139 435 149 643 2 47 2 72 -1 55
-2 -16 -8 -34 -13 -39 -10 -10 -4 101 9 159 l9 40 2 -35 c2 -23 5 -12 11 35
27 243 45 622 33 691 l-8 49 -7 -85 c-12 -143 -28 -209 -66 -270 -20 -30 -40
-58 -45 -61 -5 -3 -10 -13 -12 -21 -1 -9 -8 -23 -15 -32 -10 -11 -10 -16 -2
-16 7 0 9 -4 6 -10 -3 -5 -1 -10 4 -10 11 0 13 5 15 33 1 15 16 27 35 27 12 0
11 -3 -1 -17 -18 -20 -48 -78 -48 -90 0 -4 9 3 20 17 11 14 20 20 20 15 0 -6
-5 -16 -12 -23 -8 -8 -8 -15 0 -25 7 -8 9 -16 7 -19 -10 -10 -14 -68 -4 -68 5
0 9 -14 9 -31 0 -18 -4 -28 -10 -24 -6 4 -8 10 -5 15 3 4 -7 18 -22 29 -27 20
-28 21 -9 36 21 16 30 45 15 45 -6 0 -7 5 -3 12 4 6 3 8 -4 5 -5 -4 -8 -16 -5
-27 3 -11 1 -20 -5 -20 -5 0 -9 11 -9 25 0 14 -4 29 -8 33 -11 12 -29 -31 -26
-65 1 -20 -2 -33 -9 -33 -7 0 -10 7 -6 15 11 29 -3 45 -31 34 -31 -11 -43 -5
-36 21 3 11 9 18 12 15 4 -2 8 2 8 10 0 8 -6 15 -14 15 -7 0 -13 -7 -13 -15 0
-8 -7 -15 -15 -15 -8 0 -15 4 -15 9 0 4 -13 8 -30 7 -26 -1 -28 -4 -23 -26 8
-33 23 -50 23 -25 0 17 2 18 10 5 15 -23 12 -30 -14 -30 -13 0 -26 -5 -28 -11
-6 -17 -69 22 -79 48 -11 31 0 34 42 13 33 -15 36 -16 34 -1 -2 9 -4 19 -4 24
-1 4 -10 7 -20 7 -11 0 -41 11 -68 25 -26 14 -52 24 -59 21 -7 -3 -10 3 -7 15
4 12 0 19 -10 19 -8 0 -18 7 -21 16 -3 9 -13 14 -21 11 -10 -4 -12 -1 -8 10 5
13 2 15 -12 10 -15 -6 -16 -5 -5 8 10 12 10 18 0 30 -6 8 -9 24 -5 37 5 17 4
19 -4 8 -9 -12 -11 -12 -17 3 -3 9 -4 24 -1 32 4 8 1 17 -5 21 -7 4 -6 9 3 15
9 5 19 0 29 -17 9 -13 21 -21 25 -17 5 5 3 0 -4 -10 -8 -9 -11 -20 -7 -24 3
-4 13 2 21 13 14 18 14 17 9 -13 -5 -26 -3 -33 10 -33 9 0 16 5 16 11 0 5 4 8
10 4 5 -3 6 -13 3 -22 -4 -10 -2 -14 4 -10 14 9 23 -16 16 -44 -4 -15 -3 -20
5 -15 7 4 12 14 12 21 0 9 6 12 15 9 11 -5 13 -10 5 -19 -8 -9 -8 -15 0 -20 6
-4 9 -1 8 6 -2 7 4 14 14 16 10 3 18 -3 20 -14 3 -16 5 -16 18 -2 7 9 25 14
39 12 15 -2 3 5 -24 15 -99 35 -140 71 -192 168 -34 63 -53 150 -53 244 0 106
20 177 59 207 l28 22 57 -30 57 -31 58 16 c31 9 65 16 75 16 10 0 39 18 64 41
52 46 174 111 242 129 57 15 110 42 133 68 10 11 21 43 26 71 4 28 15 59 24
69 10 10 26 47 38 83 l21 64 -35 115 c-51 167 -88 355 -77 385 12 32 16 115 6
138 -6 13 -3 17 15 17 23 0 145 116 182 173 9 15 23 27 30 27 7 0 43 28 80 61
66 60 97 105 111 162 3 15 13 27 21 27 8 0 51 35 94 78 89 87 98 108 88 219
-10 102 -68 176 -120 152 -16 -7 -31 -8 -43 -1 -41 20 -45 -1 -5 -25 58 -34
51 -36 -16 -5 -32 14 -75 26 -95 26 -32 1 -37 3 -32 18 7 24 -6 23 -47 -5 -54
-36 -107 -130 -64 -114 8 4 17 1 21 -5 5 -7 -7 -9 -38 -4 -50 7 -64 -2 -77
-50 -4 -15 -16 -32 -26 -38 -11 -6 -36 -23 -56 -38 l-36 -27 -12 112 c-13 119
-13 131 -11 217 0 30 -5 73 -13 94 -11 33 -20 42 -53 52 -21 6 -33 12 -25 13
8 1 11 7 7 16 -3 8 -9 22 -12 30 -4 9 3 19 19 26 22 10 24 15 16 41 -15 53
-20 55 -136 52 l-108 -3 70 13 c39 7 66 14 60 16 -5 1 -14 2 -19 1 -5 -1 -6 5
-3 14 7 18 -9 21 -17 3 -4 -7 -4 -3 -2 10 4 23 -8 31 -18 10 -3 -7 -3 -3 0 10
3 13 1 22 -6 22 -6 0 -8 5 -4 12 5 7 3 8 -5 3 -8 -4 -11 -18 -8 -34 l5 -26
-19 24 c-18 22 -23 45 -20 81 1 11 -2 9 -10 -4 -8 -13 -14 -15 -19 -7 -4 7
-17 13 -29 14 -23 1 -23 2 4 24 14 13 22 23 16 23 -5 0 -11 7 -13 16 -3 14 -6
13 -25 -4 -13 -11 -23 -24 -23 -31 0 -6 -6 -11 -14 -11 -8 0 -17 -14 -21 -32
-4 -18 -12 -39 -19 -47 -6 -8 -10 -17 -8 -20 2 -3 -2 -7 -9 -10 -8 -2 -10 5
-7 24 5 21 2 26 -11 22 -11 -3 -17 2 -17 14 0 10 4 15 8 13 4 -3 5 2 2 10 -3
9 -11 16 -18 16 -6 0 -17 9 -24 20 -7 12 -8 20 -2 20 5 0 10 8 10 18 0 13 2
14 9 4 7 -11 9 -11 14 2 5 12 0 16 -17 16 -15 0 -26 7 -29 20 -3 11 -1 20 4
20 5 0 9 5 9 11 0 6 -7 8 -16 5 -13 -5 -15 -2 -11 15 4 15 2 19 -8 15 -17 -6
-30 10 -15 19 5 3 10 12 10 18 0 7 -4 6 -10 -3 -8 -11 -10 -8 -8 15 2 20 -1
29 -9 27 -7 -1 -13 3 -13 9 0 6 -13 28 -30 49 -16 21 -30 45 -30 53 0 8 -7 17
-15 21 -10 3 -15 -1 -15 -11 0 -16 -10 -8 -90 71 -23 22 -40 14 -33 -17 4 -21
4 -21 -10 -4 -13 16 -15 16 -21 2 -11 -29 -25 -6 -16 25 5 19 5 28 -1 25 -5
-4 -9 1 -9 9 0 8 5 18 11 21 6 4 7 19 4 36 -5 21 -3 29 7 29 10 0 9 3 -2 10
-13 8 -13 10 2 10 9 0 22 -8 27 -17 19 -33 13 10 -8 52 -11 23 -21 33 -25 26
-4 -6 -4 -15 -1 -21 4 -6 -2 -7 -18 -1 -23 9 -23 9 -22 -57 1 -37 0 -61 -2
-54 -3 6 -9 10 -14 6 -5 -3 -5 -13 1 -25 9 -15 7 -19 -5 -19 -8 0 -14 3 -14 8
3 19 -2 33 -10 28 -5 -4 -7 3 -4 14 3 11 0 20 -6 20 -6 0 -11 5 -11 11 0 6 7
9 15 5 18 -6 19 -1 5 24 -6 11 -17 17 -24 14 -8 -3 -23 -1 -34 5 -15 8 -19 19
-17 50 1 22 -2 38 -6 35 -12 -7 -11 3 1 27 6 10 7 19 2 19 -5 0 -5 17 1 38 6
21 16 39 22 39 19 0 89 -109 87 -134 -1 -13 3 -23 8 -23 6 0 10 7 10 15 0 9 7
18 15 21 8 4 15 11 15 17 0 6 -3 8 -6 4 -15 -15 -62 72 -50 92 4 6 -7 17 -24
26 -17 9 -30 20 -28 24 2 5 59 69 127 142 172 185 225 254 227 296 1 29 -2 33
-25 33 -19 0 -22 -3 -13 -12 18 -18 15 -42 -8 -56 -13 -8 -20 -9 -20 -1 0 11
-30 -15 -32 -28 0 -4 -8 -13 -17 -20 -13 -9 -21 -9 -38 3 -16 10 -24 11 -29 2
-4 -7 -3 -8 4 -4 16 10 15 -7 0 -23 -11 -10 -10 -12 1 -9 11 2 15 -6 15 -27 1
-20 -3 -29 -13 -27 -7 1 -19 -5 -27 -15 -12 -16 -13 -16 -7 6 5 19 2 22 -13
19 -10 -2 -18 -9 -17 -15 1 -6 -6 -9 -17 -6 -11 3 -17 9 -14 15 3 5 0 16 -7
24 -10 12 -9 13 7 8 10 -4 16 -4 12 1 -4 4 -3 14 3 22 9 9 8 13 0 13 -6 0 -11
-5 -11 -11 0 -5 -5 -7 -11 -4 -6 5 -4 12 8 20 11 8 22 10 29 4 7 -5 11 -3 11
6 0 8 -9 15 -19 15 -11 0 -16 5 -13 11 4 6 14 8 23 4 13 -5 13 -2 -2 14 -10
11 -24 17 -31 15 -7 -3 -16 0 -20 6 -4 7 1 14 13 17 13 3 18 11 15 19 -3 8
-10 11 -17 7 -6 -3 -1 5 12 19 12 13 20 27 17 30 -3 2 4 13 15 23 11 10 20 13
20 7 0 -6 -4 -14 -10 -17 -5 -3 -10 -11 -10 -16 0 -17 17 -1 39 36 l20 35 -25
-6 c-17 -4 -29 -2 -35 7 -7 11 -13 9 -29 -11 -15 -19 -18 -20 -13 -6 5 15 3
18 -10 13 -9 -3 -16 -3 -14 1 2 8 -7 12 -29 12 -8 0 -13 -3 -11 -7 3 -5 -13
-8 -34 -8 -21 0 -39 3 -39 8 0 4 -10 1 -22 -7 -12 -9 -29 -16 -38 -16 -8 1 -2
8 13 16 l29 16 -6 96 c-3 53 -3 91 0 84 3 -7 19 -19 34 -27 l29 -15 5 43 c41
313 56 538 45 675 -3 42 -7 68 -9 57z m-200 -366 c0 -13 -4 -18 -12 -13 -8 5
-9 2 -4 -12 4 -10 4 -15 0 -11 -9 9 -34 -47 -34 -74 0 -11 -4 -19 -9 -19 -5 0
-1 30 9 68 10 38 22 66 29 65 6 -2 11 2 11 7 0 6 2 10 5 10 3 0 5 -9 5 -21z
m-896 -46 c-9 -36 -13 -43 -25 -43 -6 0 -8 9 -4 20 5 16 3 19 -12 13 -12 -4
-10 0 7 15 34 29 42 27 34 -5z m216 -115 c0 -6 -6 -5 -15 2 -8 7 -15 14 -15
16 0 2 7 1 15 -2 8 -4 15 -11 15 -16z m-393 -13 c0 -8 -4 -15 -9 -15 -10 0
-11 14 -1 23 9 10 10 9 10 -8z m672 -12 c-3 -20 2 -34 11 -28 5 3 6 13 3 23
-6 14 -4 15 9 5 8 -7 18 -10 21 -6 4 3 7 -1 7 -10 0 -17 -4 -18 -46 -21 -11 0
-29 -8 -39 -16 -17 -14 -18 -13 -12 3 4 10 7 21 7 23 0 2 7 4 15 4 8 0 14 3
14 8 -2 12 1 22 6 22 3 0 4 -3 4 -7z m-104 -53 c-3 -5 -11 -10 -16 -10 -6 0
-7 5 -4 10 3 6 11 10 16 10 6 0 7 -4 4 -10z m228 -10 c3 -11 3 -20 1 -20 -2 0
-8 9 -14 20 -6 11 -7 20 -2 20 6 0 12 -9 15 -20z m-1758 0 c3 -5 1 -10 -4 -10
-6 0 -11 5 -11 10 0 6 2 10 4 10 3 0 8 -4 11 -10z m111 -29 c10 -25 11 -31 2
-24 -7 5 -23 8 -35 7 -13 0 -23 3 -23 8 0 5 -4 6 -10 3 -5 -3 -10 -1 -10 5 0
6 6 10 13 9 33 -4 40 0 26 17 -12 14 -11 16 5 13 10 -2 24 -19 32 -38z m1784
-16 c-6 -15 -13 -25 -16 -23 -2 3 1 17 7 32 7 14 14 24 16 22 2 -2 -1 -16 -7
-31z m-1930 1 c0 -8 6 -17 13 -19 8 -4 7 -6 -3 -6 -17 -1 -40 17 -40 31 0 4 7
8 15 8 8 0 15 -6 15 -14z m885 4 c3 -5 1 -10 -4 -10 -6 0 -11 5 -11 10 0 6 2
10 4 10 3 0 8 -4 11 -10z m135 -12 c9 -3 10 -7 3 -11 -6 -4 -19 3 -29 16 -11
12 -12 17 -4 11 8 -6 22 -13 30 -16z m-170 -5 c0 -7 -6 -13 -13 -13 -15 0 -37
-25 -54 -60 l-12 -25 0 25 c-1 29 6 40 34 57 11 6 19 15 18 20 -1 5 5 10 13
10 8 0 14 -6 14 -14z m1089 -44 c-9 -18 -9 -21 4 -16 14 5 44 -40 32 -51 -3
-3 -5 0 -5 6 0 7 -7 12 -15 12 -8 0 -15 -7 -15 -15 0 -22 -37 -18 -50 4 -8 16
-6 21 10 26 11 4 18 11 15 16 -4 5 -1 9 4 9 6 0 10 3 9 8 -2 13 16 46 19 35 3
-7 -1 -22 -8 -34z m-2897 -1 c4 -25 0 -36 -18 -50 -12 -10 -25 -27 -29 -37 -3
-10 -20 -25 -37 -32 -17 -7 -26 -15 -20 -17 6 -2 8 -10 5 -18 -3 -8 0 -14 6
-14 6 0 11 -5 11 -11 0 -6 -7 -8 -16 -5 -12 5 -14 1 -9 -17 4 -15 3 -18 -3 -9
-14 21 -19 19 -45 -15 -16 -22 -27 -29 -37 -23 -8 5 -18 6 -22 4 -4 -3 -8 0
-8 5 0 6 9 11 19 11 11 0 22 9 26 19 3 11 12 22 20 25 8 3 15 17 15 30 0 25
31 52 44 38 4 -4 6 4 5 18 -4 46 1 57 36 76 20 10 33 24 31 30 -5 13 2 24 15
24 3 0 9 -14 11 -32z m2698 1 c-6 -10 -8 -19 -4 -19 4 0 0 -8 -9 -18 -10 -10
-15 -22 -12 -25 3 -4 2 -5 -2 -2 -11 9 -12 35 -1 32 9 -2 17 18 20 50 1 7 5
10 10 7 4 -3 3 -14 -2 -25z m-1714 -10 c11 -23 12 -30 3 -27 -11 4 -33 58 -23
58 2 0 11 -14 20 -31z m-183 -83 c-3 -4 -9 -2 -14 5 -13 22 -11 31 5 17 8 -7
12 -17 9 -22z m-382 12 c1 -7 1 -19 0 -26 -2 -10 6 -12 27 -7 22 4 31 2 36
-10 3 -9 10 -14 15 -11 4 3 11 -15 15 -41 11 -79 10 -79 -36 -81 -24 0 -60 -3
-81 -6 -33 -4 -36 -3 -21 8 16 12 16 13 -2 20 -10 4 -20 3 -22 -3 -2 -5 -9 -8
-17 -5 -7 3 -16 0 -20 -6 -4 -7 0 -10 11 -8 13 2 22 -9 36 -44 10 -29 14 -50
8 -53 -6 -3 -10 1 -10 9 0 9 -4 16 -10 16 -5 0 -10 8 -11 18 0 14 -2 14 -9 -3
-7 -18 -9 -16 -15 13 -8 35 -25 44 -25 13 0 -11 -5 -23 -10 -26 -6 -4 -7 -11
-4 -17 4 -6 2 -8 -4 -4 -5 3 -13 0 -16 -6 -3 -7 -3 -2 0 12 3 14 14 39 24 55
11 17 33 55 51 85 66 114 87 139 90 108z m79 -8 c13 -8 13 -10 -2 -10 -9 0
-20 5 -23 10 -8 13 5 13 25 0z m70 0 c0 -5 -8 -10 -17 -10 -15 0 -16 2 -3 10
19 12 20 12 20 0z m-727 -15 c-3 -9 -8 -14 -10 -11 -3 3 -2 9 2 15 9 16 15 13
8 -4z m612 5 c-3 -5 -11 -10 -16 -10 -6 0 -7 5 -4 10 3 6 11 10 16 10 6 0 7
-4 4 -10z m247 -15 c-7 -36 -15 -35 -27 3 -6 20 -4 23 12 20 12 -2 17 -11 15
-23z m-32 -30 c0 -27 -22 -74 -38 -80 -13 -5 -12 -1 4 16 l19 22 -27 -17 c-15
-10 -31 -15 -36 -12 -6 3 -15 -1 -22 -9 -16 -19 -34 -19 -26 0 3 8 1 15 -4 15
-28 0 8 85 40 93 11 3 18 1 14 -4 -8 -14 9 -10 31 7 18 13 21 13 32 -3 7 -9
13 -22 13 -28z m-655 15 c3 -5 1 -10 -4 -10 -6 0 -11 5 -11 10 0 6 2 10 4 10
3 0 8 -4 11 -10z m291 0 c11 0 9 -11 -11 -47 -14 -27 -25 -52 -25 -58 0 -5
-22 -29 -50 -53 -47 -41 -49 -42 -39 -15 6 15 20 51 30 80 11 28 26 54 34 57
23 8 18 25 -5 19 -11 -3 -20 -1 -20 5 0 12 37 21 58 16 8 -2 20 -4 28 -4z
m-276 -40 c-15 -28 -42 -60 -51 -60 -4 0 -5 9 -2 20 3 11 10 20 15 20 5 0 6 5
2 12 -5 7 -2 9 8 5 11 -4 18 1 22 16 3 12 8 18 11 15 4 -3 1 -16 -5 -28z
m2870 10 c0 -5 -2 -10 -4 -10 -3 0 -8 5 -11 10 -3 6 -1 10 4 10 6 0 11 -4 11
-10z m-20 -70 c0 -5 -2 -10 -4 -10 -3 0 -8 5 -11 10 -3 6 -1 10 4 10 6 0 11
-4 11 -10z m127 -6 c-3 -3 -12 -4 -19 -1 -8 3 -5 6 6 6 11 1 17 -2 13 -5z m63
2 c0 -3 -4 -8 -10 -11 -5 -3 -10 -1 -10 4 0 6 5 11 10 11 6 0 10 -2 10 -4z
m-2341 -86 c-1 -37 -2 -41 -9 -20 -12 38 -12 99 0 80 5 -8 9 -35 9 -60z m-303
-27 c-6 -51 -6 -51 -17 -24 -12 30 -1 101 13 78 5 -9 7 -33 4 -54z m-606 47
c0 -5 -5 -10 -11 -10 -5 0 -7 5 -4 10 3 6 8 10 11 10 2 0 4 -4 4 -10z m-15
-54 c0 -13 -5 -22 -11 -19 -7 2 -10 13 -7 24 7 27 18 24 18 -5z m96 1 c-10 -9
-11 -8 -5 6 3 10 9 15 12 12 3 -3 0 -11 -7 -18z m625 -43 c-5 -13 -1 -15 20
-11 28 5 84 -12 84 -26 0 -5 -19 -7 -42 -4 -58 6 -137 -19 -168 -54 -26 -29
-54 -37 -65 -19 -3 5 -12 7 -20 3 -9 -3 -15 1 -15 10 0 10 7 13 24 10 14 -3
39 5 65 21 22 14 48 26 57 26 11 0 14 5 10 16 -4 12 -2 15 9 10 10 -4 15 1 15
14 0 12 7 20 16 20 11 0 14 -5 10 -16z m1988 2 c-21 -15 -30 -14 -19 3 3 6 14
11 23 11 13 0 13 -2 -4 -14z m771 -5 c3 -5 2 -12 -3 -15 -5 -3 -9 1 -9 9 0 17
3 19 12 6z m-25 -31 c0 -11 -4 -20 -9 -20 -5 0 -7 9 -4 20 3 11 7 20 9 20 2 0
4 -9 4 -20z m-3396 4 c9 -3 16 -17 16 -29 0 -24 0 -24 -40 -7 -22 9 -40 20
-40 25 0 4 14 1 30 -8 26 -13 30 -13 30 -1 0 8 -6 17 -12 19 -7 3 -10 6 -6 6
3 1 13 -2 22 -5z m1801 -4 c-27 -12 -35 -12 -35 0 0 6 12 10 28 9 24 0 25 -1
7 -9z m-105 -19 c-19 -16 -24 -28 -24 -63 1 -24 -1 -36 -3 -27 -2 9 -14 21
-26 26 -22 10 -21 11 16 47 21 20 44 36 50 36 7 0 1 -9 -13 -19z m107 -1 c38
-1 82 -23 65 -34 -4 -3 -42 3 -83 14 -41 10 -68 19 -61 19 7 1 10 6 6 12 -5 8
-1 8 14 0 11 -6 38 -11 59 -11z m-1557 -48 c17 -62 13 -127 -10 -153 l-21 -24
16 33 c14 28 14 41 2 112 -14 80 -6 100 13 32z m2400 38 c0 -5 -2 -10 -4 -10
-3 0 -8 5 -11 10 -3 6 -1 10 4 10 6 0 11 -4 11 -10z m940 -10 c0 -5 -5 -10
-11 -10 -5 0 -7 5 -4 10 3 6 8 10 11 10 2 0 4 -4 4 -10z m-2253 -22 c-3 -8 -6
-5 -6 6 -1 11 2 17 5 13 3 -3 4 -12 1 -19z m-1320 -75 c-2 -16 -4 -5 -4 22 0
28 2 40 4 28 2 -13 2 -35 0 -50z m1708 -11 l-7 -27 -9 24 c-6 14 -7 39 -3 55
l7 31 9 -28 c6 -15 7 -40 3 -55z m1591 64 c18 -19 18 -32 0 -17 -11 9 -19 5
-37 -20 -20 -29 -21 -32 -5 -26 16 6 17 5 6 -8 -11 -13 -15 -13 -22 -3 -7 10
-11 9 -19 -4 -5 -10 -15 -18 -20 -18 -6 0 -17 -7 -26 -15 -8 -9 -18 -13 -21
-10 -3 3 16 26 43 50 27 24 46 47 42 51 -4 4 3 13 16 20 29 16 26 16 43 0z
m-3149 -48 c-2 -13 -4 -5 -4 17 -1 22 1 32 4 23 2 -10 2 -28 0 -40z m2753 -14
c0 -8 -4 -12 -10 -9 -5 3 -10 10 -10 16 0 5 5 9 10 9 6 0 10 -7 10 -16z
m-2743 -46 c-3 -7 -5 -2 -5 12 0 14 2 19 5 13 2 -7 2 -19 0 -25z m-150 -10
c-3 -7 -5 -2 -5 12 0 14 2 19 5 13 2 -7 2 -19 0 -25z m2900 10 c-3 -8 -6 -5
-6 6 -1 11 2 17 5 13 3 -3 4 -12 1 -19z m343 2 c0 -5 -4 -10 -9 -10 -6 0 -13
5 -16 10 -3 6 1 10 9 10 9 0 16 -4 16 -10z m-2075 -19 c3 -5 2 -12 -3 -15 -5
-3 -9 1 -9 9 0 17 3 19 12 6z m-989 -65 c10 -27 29 -62 42 -78 27 -31 15 -39
-13 -8 -17 19 -65 125 -65 145 0 18 18 -10 36 -59z m896 32 c-4 -16 -2 -19 9
-14 8 4 4 -1 -8 -11 -16 -13 -21 -24 -16 -41 4 -17 8 -20 14 -11 4 8 11 10 16
6 8 -9 -17 -28 -28 -21 -4 2 -14 -4 -21 -14 -7 -10 -28 -26 -46 -35 l-33 -16
23 37 c49 81 89 142 92 142 2 0 2 -10 -2 -22z m-813 -48 c1 -13 0 -13 -9 0 -5
8 -9 24 -9 35 l0 20 9 -20 c5 -11 9 -27 9 -35z m2861 40 c0 -5 -5 -10 -11 -10
-5 0 -7 5 -4 10 3 6 8 10 11 10 2 0 4 -4 4 -10z m-3430 -45 c0 -19 -4 -37 -10
-40 -6 -4 -10 12 -10 40 0 28 4 44 10 40 6 -3 10 -21 10 -40z m1460 21 c0 -2
-7 -9 -15 -16 -12 -10 -15 -10 -15 4 0 9 7 16 15 16 8 0 15 -2 15 -4z m25 -67
c-13 -24 -25 -41 -25 -37 0 14 45 99 48 90 1 -5 -9 -29 -23 -53z m-1605 47 c0
-11 -19 -15 -25 -6 -3 5 1 10 9 10 9 0 16 -2 16 -4z m1554 -40 c-3 -9 -10 -13
-16 -10 -5 3 -4 12 3 20 15 18 22 13 13 -10z m-814 -36 c27 -52 12 -52 -18 0
-12 22 -18 40 -13 40 6 0 20 -18 31 -40z m1817 18 c-3 -8 -6 -5 -6 6 -1 11 2
17 5 13 3 -3 4 -12 1 -19z m107 -61 c-9 -36 -22 -25 -16 13 3 20 8 28 14 22 5
-5 6 -21 2 -35z m-2759 5 c45 -15 50 -20 53 -49 2 -23 -3 -35 -20 -47 -31 -22
-48 -20 -49 7 -1 15 -4 10 -9 -13 -7 -34 -7 -33 -9 14 -1 43 -6 53 -33 77 -33
28 -33 28 -8 28 14 0 48 -8 75 -17z m1460 -53 c-16 -26 -23 -34 -19 -19 8 29
35 73 41 67 2 -2 -8 -24 -22 -48z m-675 -3 c0 -5 -7 -1 -15 10 -8 10 -14 24
-14 29 0 6 6 1 14 -9 8 -11 15 -24 15 -30z m780 35 c0 -10 -24 -21 -43 -21 -7
0 -3 7 7 15 22 17 36 19 36 6z m-715 -61 c-1 -17 2 -30 7 -30 5 0 0 -12 -11
-26 -22 -29 -21 -33 25 -102 14 -20 35 -45 47 -55 20 -17 20 -18 3 -15 -11 2
-31 22 -45 44 -14 23 -35 54 -45 69 -18 25 -19 30 -5 54 12 21 12 31 2 51 -7
15 -9 37 -6 49 6 22 7 22 18 7 7 -9 11 -30 10 -46z m23 29 c-3 -8 -7 -3 -11
10 -4 17 -3 21 5 13 5 -5 8 -16 6 -23z m-771 -21 c-3 -7 -5 -2 -5 12 0 14 2
19 5 13 2 -7 2 -19 0 -25z m1445 -2 c7 4 8 2 4 -4 -12 -19 -36 -15 -29 5 4 11
8 13 11 5 2 -7 9 -9 14 -6z m73 4 c-3 -5 -10 -10 -16 -10 -5 0 -9 5 -9 10 0 6
7 10 16 10 8 0 12 -4 9 -10z m-1201 -21 c-6 -11 -24 -2 -24 11 0 5 7 7 15 4 8
-4 12 -10 9 -15z m1088 -11 c2 -6 -4 -20 -14 -30 -24 -24 -46 -24 -25 0 10 10
17 24 17 30 0 16 17 15 22 0z m-1447 -64 c2 -21 11 -70 19 -109 9 -38 16 -74
16 -78 0 -7 19 -4 56 10 7 2 12 -7 12 -21 0 -22 -5 -26 -32 -26 -18 0 -37 5
-43 11 -8 8 -17 8 -31 0 -28 -15 -31 -14 -31 7 -1 23 -17 138 -25 182 -6 31
-4 37 21 52 15 9 29 15 31 14 1 -2 4 -21 7 -42z m929 20 c4 -10 1 -14 -6 -12
-15 5 -23 28 -10 28 5 0 13 -7 16 -16z m61 4 c5 4 6 0 3 -9 -8 -20 11 -50 19
-31 2 6 14 12 26 12 18 0 19 -2 7 -10 -13 -9 -13 -11 -1 -19 8 -5 22 -8 32 -6
11 2 16 -1 13 -9 -2 -6 -12 -12 -22 -12 -9 0 -28 -4 -40 -8 -22 -7 -23 -6 -17
14 6 19 4 22 -12 18 -25 -7 -46 17 -38 43 5 16 4 19 -5 14 -9 -5 -11 -4 -6 4
6 8 12 9 20 2 7 -6 17 -7 21 -3z m355 -12 c0 -2 -7 -7 -16 -10 -8 -3 -12 -2
-9 4 6 10 25 14 25 6z m1910 -16 c0 -5 -5 -10 -11 -10 -5 0 -7 5 -4 10 3 6 8
10 11 10 2 0 4 -4 4 -10z m-1850 -29 c0 -17 -3 -32 -7 -34 -5 -3 -8 10 -8 29
0 19 3 34 8 34 4 0 7 -13 7 -29z m-460 -44 c0 -12 0 -11 -24 28 l-17 30 20
-24 c12 -13 21 -28 21 -34z m-770 6 c-1 -11 -50 -70 -50 -60 0 16 31 67 40 67
6 0 10 -3 10 -7z m220 -9 c0 -2 -7 -4 -15 -4 -8 0 -15 4 -15 10 0 5 7 7 15 4
8 -4 15 -8 15 -10z m80 -3 c0 -5 -3 -17 -6 -26 -5 -12 -9 -14 -14 -4 -5 7 -6
18 -3 26 6 15 23 18 23 4z m725 -11 c3 -5 -1 -10 -10 -10 -9 0 -13 5 -10 10 3
6 8 10 10 10 2 0 7 -4 10 -10z m825 0 c0 -5 -4 -10 -9 -10 -6 0 -13 5 -16 10
-3 6 1 10 9 10 9 0 16 -4 16 -10z m1115 -28 c-64 -60 -85 -70 -28 -13 28 28
55 51 60 51 4 0 -10 -17 -32 -38z m-2205 18 c0 -5 -5 -10 -11 -10 -5 0 -7 5
-4 10 3 6 8 10 11 10 2 0 4 -4 4 -10z m-563 -37 c-3 -10 -5 -4 -5 12 0 17 2
24 5 18 2 -7 2 -21 0 -30z m760 31 c-3 -3 -12 -4 -19 -1 -8 3 -5 6 6 6 11 1
17 -2 13 -5z m2248 -4 c-3 -5 -20 -19 -38 -30 l-32 -22 35 31 c35 32 46 38 35
21z m-3150 -30 c8 -16 15 -36 15 -45 0 -13 -4 -14 -21 -4 -12 6 -37 9 -55 7
-19 -2 -34 -2 -34 1 0 8 63 71 72 71 4 0 14 -13 23 -30z m780 -10 c3 -5 2 -10
-4 -10 -5 0 -13 5 -16 10 -3 6 -2 10 4 10 5 0 13 -4 16 -10z m-195 -17 c0 3
23 -4 51 -17 54 -25 82 -55 69 -71 -4 -6 -2 -16 6 -23 9 -8 14 -9 14 -2 0 6 4
9 10 5 15 -9 -1 -35 -22 -35 -15 0 -18 5 -14 16 6 15 4 15 -11 3 -15 -12 -16
-12 -10 4 5 15 2 17 -21 15 -15 -2 -30 -7 -34 -13 -5 -6 -8 -3 -8 7 0 11 -5
15 -14 12 -22 -8 -33 15 -40 84 -3 26 -1 30 10 21 8 -6 14 -9 14 -6z m429 -12
c-6 -2 -18 4 -27 13 -15 15 -15 15 10 4 15 -7 23 -15 17 -17z m-845 -27 c3 -8
2 -12 -4 -9 -6 3 -10 10 -10 16 0 14 7 11 14 -7z m33 -36 c-3 -8 -6 -5 -6 6
-1 11 2 17 5 13 3 -3 4 -12 1 -19z m-33 -4 c3 -8 2 -12 -4 -9 -6 3 -10 10 -10
16 0 14 7 11 14 -7z m-444 -9 c0 -9 -9 -15 -22 -15 -21 0 -21 0 -2 15 24 18
24 18 24 0z m470 -60 c0 -3 -9 0 -20 7 -11 7 -20 18 -20 25 0 8 8 5 20 -7 11
-11 20 -22 20 -25z m904 30 c10 -7 19 -25 20 -39 0 -15 7 -26 15 -26 8 0 11
-6 7 -17 -4 -9 -2 -19 4 -23 7 -5 6 -11 -5 -20 -13 -11 -15 -10 -9 6 6 15 2
14 -18 -6 -13 -14 -22 -29 -20 -34 3 -4 7 -4 11 1 7 12 42 13 35 1 -3 -5 -10
-6 -15 -3 -13 9 -11 -9 4 -25 6 -8 8 -12 4 -8 -5 3 -23 1 -40 -7 -18 -7 -38
-10 -45 -8 -9 3 -12 -1 -10 -13 2 -12 -4 -19 -17 -22 -16 -2 -17 -1 -6 7 12 8
12 12 -3 26 -12 13 -14 21 -7 28 8 8 6 14 -8 22 -19 10 -19 11 1 70 19 59 51
105 72 105 6 0 19 -7 30 -15z m-1267 -55 c3 -10 15 -22 27 -26 29 -9 66 -44
65 -63 0 -11 -2 -12 -6 -3 -6 15 -39 16 -48 1 -9 -13 -32 7 -74 66 l-32 45 31
0 c23 0 33 -5 37 -20z m810 -13 c13 -11 21 -23 18 -25 -3 -3 -15 4 -28 15 -12
11 -31 26 -42 32 -18 11 -18 11 5 5 14 -3 35 -16 47 -27z m37 -53 c9 -8 16
-25 16 -37 0 -21 0 -21 -13 -2 -15 22 -28 55 -22 55 2 0 11 -7 19 -16z m411
-104 c3 -5 1 -10 -4 -10 -6 0 -11 5 -11 10 0 6 2 10 4 10 3 0 8 -4 11 -10z
m-1140 -30 c4 -6 11 -8 16 -5 11 7 25 -23 15 -32 -4 -4 -18 5 -32 20 -14 15
-20 27 -15 27 5 0 13 -5 16 -10z m1085 -10 c0 -5 -5 -10 -11 -10 -5 0 -7 5 -4
10 3 6 8 10 11 10 2 0 4 -4 4 -10z m-950 -40 c0 -15 -5 -12 -26 11 -19 22 -19
22 4 10 12 -6 22 -16 22 -21z m-54 -21 c19 -22 19 -22 -3 -10 -13 6 -23 16
-23 21 0 15 5 12 26 -11z m64 -61 c0 -6 -6 -5 -15 2 -8 7 -15 14 -15 16 0 2 7
1 15 -2 8 -4 15 -11 15 -16z m500 -47 c0 -5 -9 -7 -20 -4 -11 3 -20 7 -20 9 0
2 9 4 20 4 11 0 20 -4 20 -9z m-1523 -27 c-6 -6 19 -37 25 -33 2 1 13 -3 25
-10 20 -10 21 -14 10 -39 -14 -33 -24 -41 -46 -37 -9 2 -20 4 -26 4 -6 1 -5 5
2 9 6 4 -11 7 -38 7 -65 0 -79 20 -42 55 26 24 67 47 87 49 5 1 7 -2 3 -5z
m4050 -14 c72 -22 127 -27 198 -16 47 7 52 5 76 -21 41 -43 43 -65 15 -147
-14 -41 -26 -82 -26 -91 0 -9 -10 -29 -21 -45 -25 -33 -23 -85 5 -141 12 -24
13 -35 5 -45 -7 -8 -9 -28 -5 -49 5 -27 3 -37 -9 -41 -12 -5 -10 -10 10 -26
14 -11 25 -27 25 -35 0 -21 29 -53 47 -53 7 0 13 -11 13 -24 0 -27 69 -194 98
-235 11 -17 17 -45 17 -81 0 -68 30 -134 63 -138 18 -3 22 -10 22 -38 0 -26
10 -44 43 -79 25 -26 53 -45 65 -45 l22 0 -20 -32 c-24 -39 -28 -75 -5 -43 32
44 37 48 46 33 7 -10 9 -9 9 5 0 9 7 17 15 17 8 0 15 5 15 11 0 5 5 7 10 4 6
-3 10 -1 10 4 0 6 6 11 13 11 6 0 30 16 51 35 39 34 56 37 56 9 0 -8 7 -14 15
-14 12 0 14 -7 9 -26 -5 -21 -4 -25 7 -20 8 4 3 -2 -10 -13 -13 -12 -20 -21
-16 -21 4 0 2 -7 -6 -16 -9 -11 -9 -18 -2 -22 8 -5 7 -14 -2 -32 -11 -19 -14
-21 -15 -7 0 9 -4 17 -8 17 -4 0 -7 -12 -7 -27 1 -22 7 -29 28 -31 25 -3 25
-4 8 -21 -10 -10 -31 -22 -47 -26 -25 -6 -27 -8 -10 -14 14 -5 16 -10 8 -15
-7 -4 -12 -16 -12 -27 0 -10 -5 -19 -11 -19 -5 0 -7 5 -4 10 4 6 -6 10 -21 10
-27 0 -27 -1 -8 -15 10 -8 31 -15 47 -15 15 0 27 -4 27 -10 0 -5 -7 -7 -15 -4
-8 4 -15 1 -15 -5 0 -6 -6 -8 -12 -6 -18 7 -42 -11 -34 -24 4 -6 17 -11 29
-11 18 0 19 -2 7 -10 -13 -8 -13 -10 0 -10 9 0 6 -6 -9 -17 -23 -16 -23 -17
-5 -23 14 -5 21 -2 26 14 11 37 8 54 -9 59 -14 4 -12 5 5 6 12 0 22 -3 22 -9
0 -5 4 -10 10 -10 5 0 7 7 4 15 -4 8 -2 15 4 15 6 0 15 -12 20 -27 6 -16 11
-22 11 -15 1 14 47 17 56 3 3 -6 -4 -8 -15 -6 -11 2 -20 0 -20 -6 0 -13 -34
-11 -50 4 -12 10 -12 9 0 -7 12 -16 12 -20 -2 -30 -12 -9 -14 -17 -7 -29 13
-22 3 -37 -22 -37 -16 0 -18 3 -10 19 9 16 6 20 -17 24 -30 6 -43 0 -25 -11
13 -8 14 -52 1 -52 -4 0 -13 9 -21 20 -9 13 -20 18 -31 14 -9 -3 -16 -1 -16 5
0 6 5 11 11 11 12 0 2 61 -11 70 -4 3 -11 21 -16 40 -7 32 -10 50 -13 102 -1
10 -9 16 -21 15 -13 -1 -19 -6 -15 -14 3 -10 -6 -13 -38 -10 -23 2 -50 -1 -60
-6 -16 -7 -18 -6 -12 12 3 12 4 21 1 21 -3 0 -12 -24 -21 -52 -8 -29 -31 -93
-49 -143 -19 -49 -37 -103 -41 -120 -3 -16 -22 -54 -41 -82 -36 -55 -44 -106
-23 -145 16 -30 6 -31 -37 -6 -26 15 -36 18 -32 8 99 -238 101 -245 67 -235
-16 6 -20 4 -14 -6 5 -8 4 -11 -1 -6 -5 5 -9 12 -9 15 0 15 -17 32 -32 32 -14
0 -14 -2 0 -24 9 -12 18 -38 21 -57 10 -58 15 -109 10 -109 -3 0 -21 12 -40
26 -19 15 -37 25 -39 22 -3 -3 1 -37 10 -77 19 -91 19 -111 0 -111 -8 0 -15
-7 -15 -15 0 -10 -10 -15 -26 -15 -23 0 -26 -3 -21 -25 4 -25 4 -25 -16 -8
-11 10 -18 14 -15 8 2 -5 11 -25 18 -42 8 -18 18 -33 22 -33 4 0 8 -8 8 -17 0
-15 -2 -15 -18 3 -10 10 -21 27 -25 37 -4 11 -12 15 -18 11 -7 -4 -9 -3 -6 3
27 44 30 545 4 663 -9 41 -17 101 -17 132 0 109 -43 374 -86 535 -5 18 -3 21
14 16 27 -7 44 45 37 115 l-6 54 32 -7 32 -7 -5 56 c-4 53 -3 56 18 56 31 0
44 28 44 93 0 129 -68 291 -161 383 -32 32 -59 64 -59 71 0 7 -20 35 -45 63
-25 28 -45 55 -45 61 0 5 -20 31 -44 57 -24 26 -46 56 -48 67 -2 11 8 46 24
77 27 55 38 89 18 58 -19 -31 -20 0 -1 36 12 21 21 32 22 24 1 -19 18 19 18
40 0 9 -4 8 -9 -5 -8 -19 -9 -19 -9 3 -1 13 5 22 14 22 8 0 15 7 15 15 0 23
22 65 34 65 6 0 39 -9 73 -20z m-2377 -30 c0 -5 -2 -10 -4 -10 -3 0 -8 5 -11
10 -3 6 -1 10 4 10 6 0 11 -4 11 -10z m2257 -12 c-3 -8 -6 -5 -6 6 -1 11 2 17
5 13 3 -3 4 -12 1 -19z m-3702 -118 c-3 -6 -12 -10 -18 -9 -9 0 -9 2 1 6 23 9
12 25 -13 19 -24 -6 -25 -6 -8 13 17 20 17 20 30 1 8 -11 11 -25 8 -30z m675
12 c0 -5 -7 -9 -15 -9 -8 0 -12 4 -9 9 3 4 9 8 15 8 5 0 9 -4 9 -8z m45 -40
c-8 -8 -25 10 -19 20 4 6 9 5 15 -3 4 -7 6 -15 4 -17z m-772 -17 c8 -8 17 -11
21 -8 3 4 6 -7 6 -23 0 -20 -11 -38 -39 -64 -41 -37 -50 -40 -93 -22 -37 15
-43 31 -16 41 13 5 29 24 37 44 10 25 19 33 29 29 10 -3 13 -1 8 6 -11 17 29
15 47 -3z m792 -44 c3 -5 1 -12 -5 -16 -5 -3 -10 1 -10 9 0 18 6 21 15 7z
m-1070 -21 c22 -8 26 -15 22 -36 -3 -18 -1 -24 9 -20 8 3 11 0 7 -9 -3 -9 4
-18 18 -23 19 -7 27 -4 42 14 15 19 22 22 37 14 17 -9 18 -14 8 -38 -22 -56
-31 -71 -40 -66 -4 3 -8 -2 -8 -10 0 -20 -19 -31 -33 -17 -8 8 -8 11 0 11 7 0
13 10 15 23 4 26 -48 81 -70 72 -7 -3 -18 -5 -24 -5 -6 0 -7 -7 -4 -16 7 -19
-30 -53 -58 -54 -15 0 -16 3 -7 14 7 8 16 28 21 44 6 25 4 34 -11 48 -18 16
-18 18 -2 30 10 7 21 10 25 8 5 -3 8 2 8 10 0 19 9 20 45 6z m-85 -82 c0 -5
-7 -8 -15 -8 -17 0 -18 2 -9 25 5 13 8 14 15 3 5 -7 9 -16 9 -20z m1100 29 c0
-2 -18 -23 -40 -48 -35 -38 -46 -63 -41 -91 2 -15 -20 -8 -25 7 -7 18 38 87
74 116 24 18 32 22 32 16z m2955 -46 c3 -5 1 -12 -4 -15 -5 -3 -11 1 -15 9 -6
16 9 21 19 6z m-2808 -27 c-7 -7 -37 7 -37 17 0 6 9 5 21 -1 11 -7 19 -14 16
-16z m-101 -19 c14 -13 13 -15 -5 -15 -12 0 -21 6 -21 15 0 8 3 15 6 15 3 0
12 -7 20 -15z m-60 -52 c-7 -7 -26 7 -26 19 0 6 6 6 15 -2 9 -7 13 -15 11 -17z
m2962 15 c9 -9 12 -9 12 2 0 8 11 -2 25 -23 26 -38 42 -49 31 -22 -10 27 19
16 32 -12 7 -17 8 -23 1 -16 -6 6 -17 9 -24 7 -7 -3 -16 -1 -19 5 -4 6 -14 8
-24 5 -11 -4 -13 -3 -5 3 16 12 3 27 -27 32 -14 1 -36 9 -50 17 l-25 13 31 1
c16 0 35 -5 42 -12z m2072 -34 c12 -12 12 -14 -5 -15 -52 -3 -101 4 -107 14
-6 9 -8 9 -8 0 0 -15 -26 -17 -35 -3 -18 28 125 32 155 4z m-5119 -22 c-21 -7
-86 9 -72 18 7 4 29 3 48 -3 20 -6 30 -13 24 -15z m5249 18 c8 -5 11 -10 7
-10 -5 0 1 -13 13 -30 17 -25 19 -30 6 -30 -9 0 -25 18 -36 40 -20 40 -18 48
10 30z m-6226 -9 c4 -5 -3 -7 -14 -4 -23 6 -26 13 -6 13 8 0 17 -4 20 -9z
m244 -25 c-13 -19 -24 -33 -26 -31 -5 4 37 65 44 65 2 0 -6 -15 -18 -34z m843
4 c5 0 9 -4 9 -9 0 -12 -38 -2 -47 12 -4 7 0 8 11 4 10 -4 22 -7 27 -7z m4955
-6 c19 -9 39 -25 44 -35 9 -16 8 -17 -20 -8 -16 6 -27 15 -24 20 6 11 -10 12
-20 2 -4 -5 -13 -8 -19 -8 -7 0 -13 -10 -15 -22 -2 -13 -8 -23 -14 -23 -6 0
-3 -10 8 -22 19 -21 19 -21 -1 -13 -11 4 -49 16 -85 26 -36 10 -58 18 -49 18
9 1 35 19 58 41 46 45 80 51 137 24z m-4819 -5 c-24 -14 -10 -32 19 -25 33 9
30 1 -10 -24 -32 -19 -38 -20 -68 -7 -18 8 -40 22 -48 33 -14 18 -14 18 5 3
11 -8 33 -20 48 -27 28 -12 41 -3 36 24 -4 22 2 34 19 34 16 -1 16 -1 -1 -11z
m-250 -34 c19 -19 12 -27 -21 -27 -14 0 -23 -4 -20 -9 7 -12 -7 -11 -26 1 -10
6 -11 10 -2 10 6 0 12 5 12 11 0 7 -10 5 -25 -5 -38 -25 -43 -19 -5 9 39 29
65 32 87 10z m5113 -35 c0 -5 -4 -10 -9 -10 -6 0 -13 5 -16 10 -3 6 1 10 9 10
9 0 16 -4 16 -10z m-5100 -9 c0 -5 8 -12 18 -14 13 -4 -39 -1 -56 2 -2 1 0 6
3 11 8 13 35 13 35 1z m-106 -23 c-6 -20 -5 -21 9 -10 19 16 28 3 20 -28 -5
-20 -8 -21 -18 -7 -7 11 -16 13 -26 6 -11 -7 -10 -9 6 -9 11 0 16 -4 10 -8
-19 -14 -16 -50 5 -57 11 -4 20 -11 20 -17 0 -6 11 -3 24 5 21 14 25 14 30 2
9 -24 35 -5 42 31 3 19 10 34 14 34 23 0 60 -21 55 -31 -4 -6 -13 -8 -21 -5
-8 3 -14 -1 -14 -10 0 -8 5 -12 10 -9 6 3 10 1 10 -6 0 -6 -8 -9 -20 -6 -13 3
-20 0 -20 -10 0 -8 5 -11 10 -8 6 3 10 -1 10 -10 0 -17 -30 -17 -42 -1 -4 6
-13 4 -22 -3 -12 -10 -13 -17 -5 -27 11 -13 6 -36 -30 -131 -17 -45 -31 -56
-31 -24 0 11 -3 27 -7 37 -5 14 -3 16 12 11 15 -6 16 -5 5 8 -10 12 -10 15 1
15 12 0 12 2 0 9 -11 7 -9 10 8 16 31 10 26 25 -6 16 -21 -6 -27 -14 -26 -29
3 -21 1 -21 -28 6 -44 38 -79 96 -73 120 3 11 1 23 -6 27 -8 5 -4 15 12 32 20
22 21 24 3 18 -13 -5 -4 8 22 34 47 46 68 53 57 19z m4627 -81 c-10 -9 -11 -8
-5 6 3 10 9 15 12 12 3 -3 0 -11 -7 -18z m-4529 -19 c-7 -7 -12 -8 -12 -2 0
14 12 26 19 19 2 -3 -1 -11 -7 -17z m5118 -3 c0 -8 -2 -15 -4 -15 -2 0 -6 7
-10 15 -3 8 -1 15 4 15 6 0 10 -7 10 -15z m-300 -65 c0 -5 -7 -7 -15 -4 -8 4
-15 8 -15 10 0 2 7 4 15 4 8 0 15 -4 15 -10z m-4693 -54 c51 -37 71 -87 48
-120 -15 -20 -15 -20 -15 4 0 21 -1 22 -12 8 -7 -9 -20 -17 -28 -18 -27 -4
-41 0 -36 9 9 13 -19 7 -38 -8 -19 -16 -40 -5 -31 17 3 8 0 19 -6 23 -16 9 -3
94 18 114 19 20 44 12 100 -29z m4663 6 c0 -4 -18 -6 -40 -4 -22 2 -40 6 -40
8 0 2 18 4 40 4 22 0 40 -3 40 -8z m-833 -169 c-3 -10 -5 -4 -5 12 0 17 2 24
5 18 2 -7 2 -21 0 -30z m940 -5 c-3 -7 -5 -2 -5 12 0 14 2 19 5 13 2 -7 2 -19
0 -25z m-211 -16 c-4 -3 -11 0 -16 8 -15 24 -11 33 6 15 9 -9 13 -19 10 -23z
m-2431 18 c-3 -5 -20 -19 -38 -30 l-32 -22 35 31 c35 32 46 38 35 21z m-2365
-25 c0 -8 -4 -15 -10 -15 -5 0 -7 7 -4 15 4 8 8 15 10 15 2 0 4 -7 4 -15z
m905 -69 c-9 -20 -13 -41 -10 -46 3 -5 1 -11 -5 -15 -17 -10 -11 -25 13 -34
101 -41 95 -34 73 -96 -8 -22 -17 -56 -20 -76 -5 -28 -13 -39 -42 -52 -22 -11
-32 -22 -28 -29 5 -8 2 -9 -9 -5 -10 3 -17 2 -17 -4 0 -6 -4 -7 -10 -4 -18 11
-51 14 -45 4 4 -5 12 -6 18 -2 7 4 6 -1 -2 -11 -9 -10 -17 -13 -21 -7 -3 6
-12 3 -20 -9 -14 -20 -50 -28 -50 -11 0 4 -28 11 -62 15 -35 3 -64 10 -66 16
-11 32 -46 59 -80 62 l-37 3 -3 71 c-3 70 -2 71 25 82 15 6 40 13 54 16 14 3
42 17 63 31 20 14 49 25 65 25 59 0 130 30 178 75 26 25 48 43 50 41 2 -1 -4
-20 -12 -40z m3263 20 c17 0 32 -1 32 -2 0 -12 -14 -34 -22 -34 -5 0 -6 5 -3
10 11 18 -15 10 -35 -10 -23 -23 -62 -40 -91 -40 -17 0 -19 4 -13 23 4 12 11
25 16 28 5 3 9 10 8 15 -2 13 33 23 55 16 11 -3 35 -6 53 -6z m50 -26 c-15
-24 -19 -21 -11 8 3 12 9 19 14 16 5 -3 3 -14 -3 -24z m-3902 9 c5 -8 8 -8 13
0 9 14 38 -15 43 -44 1 -11 9 -26 16 -34 15 -16 12 -20 -18 -26 -13 -3 -28 -9
-33 -14 -6 -6 -16 3 -28 27 -22 41 -24 68 -8 78 8 4 7 9 -2 15 -10 6 -10 9 -2
9 6 0 15 -5 19 -11z m-1581 -63 c10 4 12 0 8 -15 -3 -12 -7 -21 -9 -21 -11 0
-42 45 -37 53 3 5 10 3 15 -6 5 -9 15 -14 23 -11z m5252 -8 c-3 -7 -5 -2 -5
12 0 14 2 19 5 13 2 -7 2 -19 0 -25z m-1987 2 c-8 -5 -19 -10 -25 -10 -5 0 -3
5 5 10 8 5 20 10 25 10 6 0 3 -5 -5 -10z m-3230 -25 c0 -8 -4 -15 -10 -15 -5
0 -10 7 -10 15 0 8 5 15 10 15 6 0 10 -7 10 -15z m1690 -15 c0 -5 -2 -10 -4
-10 -3 0 -8 5 -11 10 -3 6 -1 10 4 10 6 0 11 -4 11 -10z m1606 -5 c25 -13 26
-15 8 -15 -12 0 -27 7 -34 15 -16 19 -10 19 26 0z m-3312 -29 c-4 -9 -12 -15
-18 -13 -6 3 -16 -6 -22 -18 -10 -21 -9 -23 13 -19 20 4 24 1 19 -14 -12 -36
-36 -174 -36 -203 0 -16 -5 -29 -12 -29 -10 0 -9 -3 1 -9 11 -7 11 -15 2 -37
-8 -20 -10 -22 -7 -6 2 12 0 20 -5 16 -5 -3 -9 -14 -9 -25 0 -11 -4 -17 -10
-14 -6 4 -10 -5 -10 -19 0 -14 -4 -26 -10 -26 -5 0 -7 6 -4 14 3 9 -5 20 -23
30 -20 11 -23 15 -10 16 21 0 23 20 2 20 -23 0 -18 19 8 30 12 5 16 9 10 9
-16 1 -17 31 -2 31 5 0 7 -4 4 -10 -3 -5 -2 -10 4 -10 16 0 22 18 9 24 -9 3
-8 8 5 16 9 6 17 16 17 23 0 7 -4 6 -10 -3 -12 -20 -15 -14 -26 51 -8 46 -8
56 3 52 8 -3 11 -14 6 -31 -4 -17 -2 -23 6 -18 6 4 11 21 11 37 0 22 -4 28
-12 23 -9 -5 -8 -2 1 9 12 15 12 19 -5 31 -17 13 -16 14 11 8 28 -5 29 -4 12
13 -24 23 -17 40 17 41 16 1 32 7 37 15 5 8 9 10 9 5 0 -6 5 -5 12 2 15 15 20
10 12 -12z m4191 -26 c0 -1 20 -4 45 -6 30 -2 40 -1 30 6 -23 14 51 10 80 -6
36 -18 85 -74 98 -111 6 -18 8 -33 5 -33 -3 0 0 -7 7 -15 7 -8 9 -15 4 -15 -5
0 -4 -4 2 -8 6 -4 23 -27 39 -51 19 -32 23 -42 11 -38 -11 4 -16 1 -16 -11 0
-14 -2 -15 -10 -2 -5 8 -5 17 0 20 4 3 2 16 -5 30 -8 14 -14 19 -15 12 0 -7
-4 -10 -10 -7 -5 3 -10 -3 -10 -15 0 -11 6 -23 14 -26 15 -6 22 -104 7 -104
-4 0 -6 12 -3 26 3 19 1 25 -7 20 -6 -4 -9 -12 -6 -17 4 -5 2 -9 -3 -9 -6 0
-10 -6 -9 -12 1 -33 -4 -49 -13 -43 -5 3 -10 1 -10 -4 0 -6 -4 -11 -10 -11 -5
0 -10 16 -10 36 0 31 -2 35 -15 24 -16 -13 -15 -15 -20 51 -1 14 -5 31 -9 38
-4 6 -3 11 3 11 6 0 0 10 -12 23 -25 27 -33 27 -19 0 5 -10 7 -23 5 -30 -6
-17 -33 -4 -33 16 0 10 -7 18 -15 18 -8 0 -15 -4 -15 -9 0 -21 -18 -5 -23 20
-5 24 -10 29 -34 27 -18 -1 -27 -7 -25 -16 2 -8 0 -11 -4 -7 -9 9 -36 -11 -29
-21 2 -4 -2 -8 -10 -8 -11 0 -12 4 -4 13 6 8 7 23 3 36 -4 13 -9 35 -10 51 -4
64 -4 63 -14 47 -5 -8 -10 -10 -10 -5 0 6 -4 5 -8 -2 -6 -10 -16 -10 -45 -1
-20 6 -34 15 -31 19 2 4 -1 11 -7 15 -8 4 -9 3 -5 -4 4 -8 2 -10 -8 -6 -8 3
-12 12 -9 20 3 8 10 11 17 7 8 -4 8 -2 -1 7 -19 20 19 52 69 57 24 3 44 6 45
7 2 2 68 -2 68 -4z m-1100 -9 c-13 -12 -85 -42 -85 -35 0 5 79 43 90 44 2 0 0
-4 -5 -9z m2454 -33 c1 15 31 16 31 1 0 -5 -4 -7 -10 -4 -5 3 -10 2 -10 -3 0
-5 -11 -12 -25 -14 -19 -4 -25 -1 -25 13 0 23 23 30 32 10 4 -9 7 -11 7 -3z
m61 -2 c0 -3 -4 -8 -10 -11 -5 -3 -10 -1 -10 4 0 6 5 11 10 11 6 0 10 -2 10
-4z m-2680 -34 c0 -4 -23 -13 -50 -18 -32 -7 -47 -7 -41 -1 6 6 27 13 48 17
21 4 39 8 41 9 1 0 2 -3 2 -7z m2645 -2 c3 -5 1 -10 -4 -10 -6 0 -11 5 -11 10
0 6 2 10 4 10 3 0 8 -4 11 -10z m43 -49 c16 6 22 5 22 -5 0 -8 6 -17 13 -19 9
-4 9 -7 -1 -15 -7 -5 -10 -16 -6 -28 6 -16 5 -17 -7 -6 -7 6 -23 12 -36 12
-13 0 -23 5 -23 10 0 6 -4 10 -10 10 -12 0 -9 -22 5 -33 6 -5 2 -6 -9 -3 -11
4 -23 1 -29 -6 -5 -8 -7 1 -3 25 3 22 1 35 -5 32 -5 -4 -9 1 -9 9 0 9 4 16 10
16 5 0 6 8 3 17 -6 14 -2 14 28 -4 25 -15 40 -19 57 -12z m-2798 15 c0 -2 -7
-7 -16 -10 -8 -3 -12 -2 -9 4 6 10 25 14 25 6z m1224 -18 c15 0 29 -5 33 -11
4 -6 -4 -8 -20 -5 -23 4 -25 3 -17 -13 6 -11 6 -20 1 -24 -5 -3 -12 3 -14 12
-4 17 -5 17 -6 0 0 -10 6 -20 14 -23 8 -4 12 -10 9 -15 -3 -5 -11 -7 -17 -3
-7 3 -5 0 4 -8 22 -19 29 -44 16 -58 -9 -10 -9 -11 1 -6 6 4 12 3 12 -3 0 -10
18 -10 36 1 14 9 77 7 67 -3 -4 -4 -17 -9 -28 -12 -15 -4 -13 -5 8 -6 28 -1
36 -14 16 -27 -6 -3 -9 -17 -6 -30 2 -13 1 -21 -3 -19 -7 4 -19 -15 -25 -35 0
-3 -8 -18 -16 -34 -13 -24 -17 -26 -22 -12 -4 10 -3 15 3 11 6 -3 10 -3 11 2
0 4 2 15 4 25 2 10 -5 18 -21 21 -13 2 -24 0 -24 -4 0 -5 8 -10 18 -10 16 -1
16 -2 -1 -6 -9 -2 -14 -9 -10 -15 4 -8 0 -9 -11 -5 -11 4 -15 3 -10 -4 9 -16
11 -79 1 -79 -5 0 -5 -14 -2 -32 6 -26 5 -30 -9 -25 -8 3 -18 1 -22 -5 -4 -7
-3 -8 4 -4 8 5 12 -1 12 -14 0 -16 -4 -20 -16 -16 -14 6 -15 4 -4 -10 11 -12
11 -17 1 -23 -7 -5 -18 -19 -24 -31 -16 -31 -37 -37 -37 -11 0 12 -2 21 -4 21
-2 0 -13 3 -23 6 -17 5 -17 5 0 -6 12 -7 16 -18 12 -31 -4 -13 -2 -19 9 -19 8
0 23 -3 33 -7 10 -3 15 -3 11 2 -8 8 20 70 29 62 3 -3 1 -12 -3 -19 -5 -7 -10
-22 -11 -32 -2 -11 -10 -28 -19 -37 -11 -13 -12 -19 -4 -24 7 -4 16 -2 20 5 4
7 13 11 19 9 7 -3 -3 -13 -20 -23 -18 -10 -29 -14 -26 -8 4 5 0 13 -9 16 -8 3
-13 10 -9 15 3 6 -3 15 -14 20 -28 16 -34 14 -28 -10 4 -16 3 -18 -9 -9 -10 9
-11 17 -3 32 6 11 8 22 5 26 -3 3 -6 1 -6 -4 0 -5 -9 -10 -19 -10 -11 0 -17 4
-15 8 3 4 -1 16 -8 27 -9 15 -9 25 0 46 10 21 9 27 -3 31 -11 4 -12 11 -6 23
7 11 5 21 -6 33 -14 15 -14 19 1 33 18 19 20 31 6 40 -5 3 -10 12 -10 18 0 7
4 6 11 -3 9 -12 10 -11 6 8 -3 14 1 27 11 35 10 6 17 22 18 35 0 16 -3 19 -10
12 -16 -16 -26 -12 -19 8 6 15 5 15 -10 3 -11 -9 -17 -10 -17 -2 0 6 6 12 13
12 6 1 17 2 23 3 24 3 86 96 64 96 -6 0 -6 10 1 27 7 18 6 30 -1 37 -5 5 -10
15 -10 21 1 5 9 0 19 -12 18 -22 19 -22 24 -3 3 11 1 22 -4 25 -4 3 -5 13 -2
21 4 10 8 12 12 5 4 -7 12 -3 21 9 9 13 16 16 21 9 4 -7 19 -11 33 -11z m1646
5 c0 9 30 -18 30 -27 0 -3 -11 -6 -25 -6 -21 0 -25 5 -25 28 0 21 2 24 10 12
5 -8 10 -11 10 -7z m-2925 -23 c-10 -11 -21 -17 -24 -14 -3 3 3 12 13 20 28
20 32 17 11 -6z m2722 14 c-3 -3 -12 -4 -19 -1 -8 3 -5 6 6 6 11 1 17 -2 13
-5z m-3687 -54 c0 -5 -2 -10 -4 -10 -3 0 -8 5 -11 10 -3 6 -1 10 4 10 6 0 11
-4 11 -10z m930 -10 c-8 -5 -24 -9 -35 -9 l-20 0 20 9 c11 5 27 9 35 9 13 1
13 0 0 -9z m-2850 -16 c0 -8 -5 -12 -10 -9 -6 4 -8 11 -5 16 9 14 15 11 15 -7z
m5727 -6 c-3 -8 -6 -5 -6 6 -1 11 2 17 5 13 3 -3 4 -12 1 -19z m-3084 5 c-7
-2 -19 -2 -25 0 -7 3 -2 5 12 5 14 0 19 -2 13 -5z m1697 -3 c0 -5 -5 -10 -11
-10 -5 0 -7 5 -4 10 3 6 8 10 11 10 2 0 4 -4 4 -10z m1420 -16 c0 -8 -4 -14
-10 -14 -5 0 -10 9 -10 21 0 11 5 17 10 14 6 -3 10 -13 10 -21z m-3536 -5
c-31 -12 -39 -10 -19 5 11 8 24 12 29 8 5 -3 1 -9 -10 -13z m3916 11 c0 -5 -7
-10 -16 -10 -8 0 -12 5 -9 10 3 6 10 10 16 10 5 0 9 -4 9 -10z m-3827 -7 c-7
-2 -19 -2 -25 0 -7 3 -2 5 12 5 14 0 19 -2 13 -5z m2004 -20 c0 -9 -4 -10 -14
-2 -7 6 -13 12 -13 14 0 1 6 2 13 2 8 0 14 -6 14 -14z m1788 -1 c-3 -3 -11 0
-18 7 -9 10 -8 11 6 5 10 -3 15 -9 12 -12z m-3805 -29 c0 -12 -3 -14 -8 -6 -4
6 -23 13 -42 16 -33 4 -33 4 8 5 34 2 42 -1 42 -15z m173 10 c-7 -2 -21 -2
-30 0 -10 3 -4 5 12 5 17 0 24 -2 18 -5z m-1398 -30 c0 -30 -20 -30 -21 0 -1
13 3 24 10 24 6 0 11 -11 11 -24z m2965 23 c0 -3 -4 -8 -10 -11 -5 -3 -10 -1
-10 4 0 6 5 11 10 11 6 0 10 -2 10 -4z m1520 -15 c0 -10 -7 -24 -15 -31 -10
-9 -15 -9 -15 -1 0 6 5 11 11 11 6 0 9 9 6 20 -3 11 -1 20 4 20 5 0 9 -8 9
-19z m456 -18 c-10 -11 -19 -7 -22 10 -2 15 0 16 12 6 8 -6 12 -14 10 -16z
m-1648 -8 c-3 -3 -9 2 -12 12 -6 14 -5 15 5 6 7 -7 10 -15 7 -18z m1442 -5 c8
-5 11 -10 5 -10 -5 0 -17 5 -25 10 -8 5 -10 10 -5 10 6 0 17 -5 25 -10z
m-1368 -22 c-7 -7 -12 -8 -12 -2 0 14 12 26 19 19 2 -3 -1 -11 -7 -17z m899
12 c14 -8 18 -18 14 -45 -3 -28 -1 -35 13 -35 16 -1 16 -1 -1 -11 -9 -6 -15
-14 -12 -20 4 -5 -4 -14 -17 -20 -15 -6 -25 -20 -26 -37 -1 -15 -9 -32 -18
-39 -9 -7 -13 -17 -8 -24 5 -9 2 -10 -10 -6 -10 4 -22 7 -27 7 -10 0 -8 22 4
31 4 3 9 16 10 27 1 12 6 22 11 22 5 0 6 3 3 7 -4 3 1 12 11 20 16 12 16 13 0
7 -10 -3 -18 -1 -18 4 0 6 9 14 20 17 18 6 18 8 5 21 -8 9 -13 20 -10 24 3 5
-3 7 -15 5 -27 -5 -32 7 -14 33 16 24 53 29 85 12z m-3006 -10 c-3 -5 -14 -10
-23 -9 -14 0 -13 2 3 9 27 11 27 11 20 0z m-2350 -9 c3 -5 2 -12 -3 -15 -5 -3
-9 1 -9 9 0 17 3 19 12 6z m2120 -32 c-3 -4 -1 -10 5 -14 12 -7 -5 -46 -27
-58 -7 -5 -10 -13 -7 -19 4 -7 2 -8 -5 -4 -7 5 -9 13 -4 20 4 7 1 4 -8 -6 -14
-15 -19 -15 -28 -4 -9 11 -9 16 0 22 8 5 9 3 4 -6 -5 -9 -4 -11 4 -6 9 6 9 11
1 21 -7 8 -7 15 -1 19 5 4 12 2 16 -4 4 -6 11 -8 16 -5 5 4 9 1 9 -5 0 -6 5
-8 11 -4 8 4 7 9 -2 15 -7 4 -16 6 -20 4 -9 -6 -4 49 6 65 6 10 11 9 21 -5 7
-10 11 -21 9 -26z m3716 12 c-9 -6 -10 -11 -2 -15 6 -4 8 -12 5 -18 -4 -6 -1
-9 7 -6 8 3 13 13 12 23 -1 12 2 14 9 7 8 -8 16 -5 27 7 9 9 12 11 7 4 -6 -9
0 -21 18 -38 31 -29 27 -32 -11 -8 -25 17 -26 16 -51 -13 -14 -16 -29 -28 -34
-26 -4 1 -8 -2 -8 -8 0 -21 31 -9 40 15 5 14 14 25 20 25 6 0 2 -13 -10 -30
-12 -17 -18 -35 -14 -42 6 -9 3 -9 -9 1 -15 12 -19 10 -37 -10 -10 -13 -19
-19 -20 -12 0 6 5 15 10 18 14 9 2 25 -18 24 -10 0 -12 -3 -5 -6 10 -3 10 -9
0 -24 -10 -16 -9 -21 3 -29 12 -8 10 -10 -9 -10 -16 0 -22 4 -17 15 5 13 -5
19 -26 16 -3 0 -5 7 -3 17 1 9 10 16 19 16 13 -2 14 1 5 12 -9 11 -7 14 10 14
13 0 21 5 19 14 -3 16 61 91 70 81 4 -3 0 -10 -7 -14z m109 4 c-7 -8 -17 -15
-22 -15 -11 0 14 29 26 30 5 0 3 -7 -4 -15z m-1967 -42 c-3 -8 -11 -12 -18 -9
-7 2 -21 -2 -32 -10 -10 -9 -11 -12 -3 -8 13 7 13 5 1 -9 -7 -9 -21 -17 -30
-17 -13 0 -13 2 -2 9 8 5 12 18 8 31 -4 16 -2 20 9 16 8 -3 14 -1 14 5 0 6 5
7 10 4 6 -3 10 -2 10 3 0 6 9 8 19 5 12 -3 17 -11 14 -20z m545 -5 c1 -28 -1
-30 -15 -15 -13 13 -14 19 -3 31 17 21 17 21 18 -16z m-4518 12 c0 -5 -2 -10
-4 -10 -3 0 -8 5 -11 10 -3 6 -1 10 4 10 6 0 11 -4 11 -10z m22 -12 c-7 -7
-12 -8 -12 -2 0 14 12 26 19 19 2 -3 -1 -11 -7 -17z m2138 6 c0 -8 -5 -12 -10
-9 -6 4 -8 11 -5 16 9 14 15 11 15 -7z m3435 -74 c-3 -5 -10 -10 -16 -10 -5 0
-9 5 -9 10 0 6 7 10 16 10 8 0 12 -4 9 -10z m-1665 -10 c0 -5 -4 -10 -10 -10
-5 0 -10 5 -10 10 0 6 5 10 10 10 6 0 10 -4 10 -10z m313 -15 c-3 -9 -8 -14
-10 -11 -3 3 -2 9 2 15 9 16 15 13 8 -4z m1452 -25 c-3 -5 -10 -10 -16 -10 -5
0 -9 5 -9 10 0 6 7 10 16 10 8 0 12 -4 9 -10z m-2949 -76 c-8 -33 -16 -78 -17
-101 -2 -24 -6 -43 -10 -43 -4 0 -6 19 -4 42 5 48 36 170 42 164 2 -2 -3 -30
-11 -62z m38 -3 c-15 -15 -16 -14 -10 9 3 14 6 32 6 40 1 8 6 4 11 -9 7 -19 6
-28 -7 -40z m1066 47 c0 -4 -9 -8 -21 -8 -11 0 -18 4 -15 8 3 5 12 9 21 9 8 0
15 -4 15 -9z m117 -10 c-3 -8 -6 -5 -6 6 -1 11 2 17 5 13 3 -3 4 -12 1 -19z
m1698 12 c-3 -5 -12 -7 -20 -3 -21 7 -19 13 6 13 11 0 18 -4 14 -10z m-145
-22 c0 -4 -4 -8 -9 -8 -6 0 -12 4 -15 8 -3 5 1 9 9 9 8 0 15 -4 15 -9z m170 2
c0 -5 -5 -10 -11 -10 -5 0 -7 5 -4 10 3 6 8 10 11 10 2 0 4 -4 4 -10z m-40
-10 c0 -5 -7 -10 -16 -10 -8 0 -12 -4 -9 -10 3 -5 2 -10 -4 -10 -5 0 -9 9 -8
20 1 20 37 30 37 10z m90 -40 c0 -5 -5 -10 -11 -10 -5 0 -7 5 -4 10 3 6 8 10
11 10 2 0 4 -4 4 -10z m-95 -10 c-3 -5 -12 -10 -18 -10 -7 0 -6 4 3 10 19 12
23 12 15 0z m-2880 -49 c-5 -16 -2 -18 17 -14 13 4 26 11 31 17 4 6 6 1 4 -11
-3 -24 -17 -44 -17 -25 0 23 -28 12 -34 -13 -9 -34 -26 -32 -21 3 2 15 4 35 4
45 1 9 6 17 12 17 6 0 8 -8 4 -19z m2380 -11 c3 -5 -1 -10 -10 -10 -9 0 -13 5
-10 10 3 6 8 10 10 10 2 0 7 -4 10 -10z m-1255 -4 c0 -2 -8 -10 -17 -17 -16
-13 -17 -12 -4 4 13 16 21 21 21 13z m1525 -44 c0 -11 -8 -23 -64 -92 l-21
-25 11 33 c6 18 20 39 30 45 11 7 19 15 19 20 0 4 -4 6 -9 2 -5 -3 -12 -1 -16
5 -4 6 6 10 22 11 25 0 26 1 8 10 l-20 9 20 -3 c11 -1 20 -8 20 -15z m45 -12
c0 -5 -5 -10 -11 -10 -5 0 -7 5 -4 10 3 6 8 10 11 10 2 0 4 -4 4 -10z m-1545
-19 c-3 -6 -17 -11 -31 -11 -14 0 -23 4 -19 10 3 5 12 7 19 4 8 -3 17 0 21 6
4 6 9 9 12 6 3 -2 2 -9 -2 -15z m1358 9 c-17 -7 -23 -18 -23 -39 0 -33 -15
-49 -24 -26 -12 31 16 75 48 74 21 0 21 0 -1 -9z m-1443 -24 c0 -3 -4 -8 -10
-11 -5 -3 -10 -1 -10 4 0 6 5 11 10 11 6 0 10 -2 10 -4z m100 -22 c0 -8 -4
-12 -10 -9 -5 3 -10 1 -10 -5 0 -6 8 -9 18 -6 20 7 21 4 24 -54 1 -19 7 -39
13 -43 6 -5 1 -7 -11 -4 -13 3 -21 -1 -21 -9 0 -7 5 -10 10 -7 6 3 7 1 3 -5
-4 -6 -2 -21 4 -32 9 -17 7 -22 -13 -31 -18 -8 -23 -17 -19 -31 3 -15 7 -16
13 -7 11 19 23 3 14 -18 -5 -10 -7 -21 -7 -25 1 -5 -2 -8 -7 -8 -5 0 -12 -11
-15 -25 -4 -14 -11 -25 -17 -25 -6 0 -6 6 1 19 17 32 12 34 -15 5 -18 -19 -23
-33 -19 -50 4 -15 2 -24 -5 -24 -6 0 -11 5 -11 11 0 5 -5 7 -11 3 -6 -4 -7 -9
-2 -13 15 -10 13 -49 -3 -55 -9 -3 -12 -1 -9 4 11 18 -7 10 -25 -10 l-18 -20
-5 20 c-3 11 0 20 6 20 6 0 2 8 -9 18 -19 18 -19 18 -26 -2 -4 -14 -7 -7 -8
24 -1 25 -5 36 -7 25 -8 -29 -25 -36 -45 -18 -22 20 -23 34 -3 27 8 -4 12 -10
9 -15 -3 -5 2 -9 12 -9 14 0 15 2 3 17 -11 13 -11 17 -1 20 6 3 10 9 6 14 -3
5 0 9 7 9 7 0 4 7 -7 16 -13 11 -15 17 -6 20 6 3 10 10 6 15 -3 5 0 9 7 9 8 0
8 4 -1 15 -10 12 -10 15 4 15 9 0 15 3 14 8 -4 11 42 53 52 47 5 -3 7 3 5 13
-2 10 1 25 6 33 7 12 9 12 9 -1 0 -13 1 -13 10 0 8 13 10 13 10 -1 0 -9 -7
-19 -15 -23 -8 -3 -12 -12 -9 -21 6 -15 25 -22 22 -7 0 4 2 15 7 25 6 15 10
16 16 5 7 -10 9 -9 9 5 0 9 -4 17 -9 17 -5 0 -12 7 -15 16 -6 15 -4 15 11 3
15 -12 16 -12 10 4 -3 9 -3 17 2 17 5 0 8 8 7 18 0 9 5 16 12 15 6 -2 12 4 12
13 0 8 -4 12 -10 9 -6 -4 -10 5 -9 22 1 17 3 21 6 10 2 -9 8 -15 13 -12 5 3 7
12 3 20 -3 10 2 15 16 15 12 0 21 -6 21 -16z m1533 -4 c-6 -24 -29 -44 -37
-32 -6 10 21 52 34 52 4 0 6 -9 3 -20z m-5 -68 c34 -9 35 -10 9 -11 -43 -2
-67 16 -66 47 l1 27 9 -27 c7 -19 21 -29 47 -36z m-200 22 c-7 -15 -14 -21
-16 -15 -2 7 2 18 8 26 18 22 21 18 8 -11z m-1398 6 c0 -5 -2 -10 -4 -10 -3 0
-8 5 -11 10 -3 6 -1 10 4 10 6 0 11 -4 11 -10z m1475 -20 c4 -6 -10 -10 -35
-10 -25 0 -39 4 -35 10 3 6 19 10 35 10 16 0 32 -4 35 -10z m40 -18 c-3 -3
-11 0 -18 7 -9 10 -8 11 6 5 10 -3 15 -9 12 -12z m-62 -27 c-3 -10 -11 -12
-79 -17 -57 -4 -72 17 -22 30 37 9 104 1 101 -13z m-68 -45 c-27 -12 -35 -12
-35 0 0 6 12 10 28 9 24 0 25 -1 7 -9z m196 -19 c13 -11 20 -23 16 -27 -4 -4
-20 4 -35 19 -30 31 -16 37 19 8z m-266 -71 c-3 -5 -14 -10 -23 -10 -15 0 -15
2 -2 10 20 13 33 13 25 0z m60 -51 c11 -10 -35 -12 -60 -3 -13 5 -14 8 -3 15
14 9 47 3 63 -12z m199 -15 c9 -25 7 -34 -8 -34 -19 0 -29 17 -22 35 7 20 22
19 30 -1z m-57 -16 c-3 -8 -6 -5 -6 6 -1 11 2 17 5 13 3 -3 4 -12 1 -19z
m-223 -38 c-5 -4 -20 -11 -34 -14 -25 -7 -25 -7 3 11 15 10 27 22 28 28 0 5 3
4 6 -3 3 -8 1 -17 -3 -22z m-3534 -10 c0 -5 -5 -10 -11 -10 -5 0 -7 5 -4 10 3
6 8 10 11 10 2 0 4 -4 4 -10z m2310 5 c0 -2 -9 -9 -20 -15 -16 -9 -20 -8 -20
5 0 8 9 15 20 15 11 0 20 -2 20 -5z m1099 -30 c13 -20 22 -38 19 -40 -3 -3
-17 13 -32 35 -14 22 -23 40 -19 40 5 0 19 -16 32 -35z m148 1 c-3 -7 0 -19 6
-25 9 -9 0 -11 -40 -9 -29 2 -53 6 -53 11 0 4 8 7 18 7 9 1 28 7 42 15 31 18
33 18 27 1z m-1302 -16 c-3 -5 -11 -10 -16 -10 -6 0 -7 5 -4 10 3 6 11 10 16
10 6 0 7 -4 4 -10z m1432 -32 c-3 -8 -6 -5 -6 6 -1 11 2 17 5 13 3 -3 4 -12 1
-19z m-3741 -16 c-17 -16 -18 -16 -5 5 7 12 15 20 18 17 3 -2 -3 -12 -13 -22z
m3524 -56 c0 -2 -7 -7 -16 -10 -8 -3 -12 -2 -9 4 6 10 25 14 25 6z m-240 -33
c0 -22 -2 -25 -10 -13 -13 20 -13 40 0 40 6 0 10 -12 10 -27z m344 -6 c4 -19
3 -26 -4 -22 -5 3 -10 18 -10 32 0 32 5 28 14 -10z m-186 -21 c21 -25 19 -31
-18 -51 -10 -5 -8 -1 4 13 11 12 14 22 8 22 -6 0 -16 9 -22 20 -15 28 2 25 28
-4z m-191 -113 c30 -65 24 -83 -7 -23 -12 24 -33 55 -46 69 -14 15 -24 38 -24
56 l0 30 26 -39 c14 -21 37 -62 51 -93z m418 117 c3 -5 1 -10 -4 -10 -6 0 -11
5 -11 10 0 6 2 10 4 10 3 0 8 -4 11 -10z m-3741 -55 c3 -8 1 -15 -4 -15 -6 0
-10 7 -10 15 0 8 2 15 4 15 2 0 6 -7 10 -15z m3473 -11 c-3 -3 -12 -4 -19 -1
-8 3 -5 6 6 6 11 1 17 -2 13 -5z m106 -26 c9 1 17 -3 17 -8 0 -5 7 -7 15 -4 8
4 15 1 15 -4 0 -20 -18 -22 -54 -7 -19 8 -50 15 -68 15 -26 0 -30 3 -18 10 8
6 29 8 45 4 17 -3 38 -6 48 -6z m104 -30 c-3 -8 -6 -5 -6 6 -1 11 2 17 5 13 3
-3 4 -12 1 -19z m33 12 c0 -5 -5 -10 -11 -10 -5 0 -7 5 -4 10 3 6 8 10 11 10
2 0 4 -4 4 -10z m-46 -56 c5 -14 4 -15 -9 -4 -17 14 -19 20 -6 20 5 0 12 -7
15 -16z m-229 -14 c-3 -5 -16 -10 -28 -9 -21 0 -21 1 -2 9 28 12 37 12 30 0z
m158 -14 c-20 -11 -20 -40 0 -64 5 -7 7 -15 3 -19 -7 -8 -33 24 -40 50 -5 22
30 61 46 51 7 -4 4 -11 -9 -18z m-180 -46 c-3 -11 -9 -20 -15 -20 -5 0 -4 8 1
19 6 10 7 22 3 26 -4 5 -2 5 5 2 6 -4 9 -16 6 -27z m70 3 c-7 -2 -19 -2 -25 0
-7 3 -2 5 12 5 14 0 19 -2 13 -5z m150 -10 c-6 -16 -25 -13 -31 5 -2 6 6 10
16 9 12 -1 18 -6 15 -14z m-214 -59 c-15 -18 -22 -13 -13 10 3 9 10 13 16 10
5 -3 4 -12 -3 -20z m-97 -4 c6 0 4 -8 -5 -18 -10 -10 -17 -24 -17 -32 0 -10
-3 -10 -15 0 -8 6 -19 9 -24 6 -5 -4 -13 -1 -17 5 -9 16 35 52 53 44 8 -3 19
-5 25 -5z m288 -57 c0 -8 -6 -13 -12 -10 -7 2 -12 9 -11 14 1 6 -9 8 -22 5
-19 -3 -25 0 -25 13 0 11 5 15 15 12 8 -4 17 -1 21 5 5 7 2 8 -6 3 -9 -6 -11
-4 -5 5 6 10 12 8 27 -9 10 -13 18 -30 18 -38z m-310 -33 c0 -5 -5 -10 -11
-10 -5 0 -7 5 -4 10 3 6 8 10 11 10 2 0 4 -4 4 -10z m-76 -15 c-4 -8 -11 -15
-16 -15 -6 0 -5 6 2 15 7 8 14 15 16 15 2 0 1 -7 -2 -15z m116 5 c0 -7 7 -9
52 -13 14 -1 30 -6 34 -10 5 -4 2 -6 -6 -2 -10 3 -19 -3 -25 -17 -6 -14 -20
-24 -37 -26 -16 -2 -28 -7 -28 -12 0 -19 -45 -34 -133 -46 -63 -8 -87 -21 -80
-41 5 -15 3 -15 -11 2 -10 11 -14 14 -11 7 4 -7 -1 -22 -11 -33 -16 -18 -16
-19 3 -19 11 0 27 -8 34 -17 10 -11 10 -14 2 -9 -8 4 -13 2 -13 -6 -1 -8 -6
-6 -15 6 -8 11 -15 15 -15 8 0 -6 -7 -9 -15 -6 -8 4 -13 10 -10 14 3 5 1 12
-5 15 -13 8 -4 39 27 88 25 39 105 86 139 81 61 -10 79 -8 76 5 -1 7 2 19 7
25 11 13 41 17 41 6z m1147 -102 c-2 -13 -4 -5 -4 17 -1 22 1 32 4 23 2 -10 2
-28 0 -40z m-517 6 c0 -8 -4 -12 -10 -9 -5 3 -10 13 -10 21 0 8 5 12 10 9 6
-3 10 -13 10 -21z m-686 -50 c24 -9 -1 -54 -31 -54 -12 0 -26 -1 -30 -2 -4 -2
-10 9 -14 24 -5 21 -3 28 10 31 25 7 48 7 65 1z m-89 -25 c4 -12 2 -26 -4 -32
-8 -8 -11 -5 -11 11 0 11 -8 26 -17 31 -16 9 -16 10 4 11 13 0 24 -8 28 -21z
m860 12 c-3 -5 2 -17 11 -25 8 -9 11 -16 6 -16 -5 0 -17 9 -26 19 -13 15 -14
20 -4 24 19 8 20 8 13 -2z m-571 -27 c3 -8 2 -14 -2 -14 -13 1 -42 27 -36 33
9 9 32 -3 38 -19z m761 -16 c-4 -33 -6 -35 -14 -13 -9 21 -5 35 8 35 5 0 7
-10 6 -22z m-1105 -154 c-13 -27 -19 -33 -20 -19 0 20 28 70 36 62 2 -2 -5
-21 -16 -43z m115 -64 c3 -5 0 -8 -7 -5 -8 3 -14 -4 -15 -21 -1 -19 2 -23 7
-13 5 7 12 11 15 7 7 -7 -26 -78 -37 -78 -9 0 -11 65 -2 98 6 23 28 30 39 12z
m-1888 -66 c-3 -3 -12 -4 -19 -1 -8 3 -5 6 6 6 11 1 17 -2 13 -5z m3035 -71
c7 -8 7 -13 1 -13 -13 0 -34 46 -25 55 4 4 9 -1 11 -12 2 -10 8 -24 13 -30z
m-22 -9 c0 -2 -7 -4 -15 -4 -8 0 -15 4 -15 10 0 5 7 7 15 4 8 -4 15 -8 15 -10z
m-4586 -9 c-4 -8 -11 -15 -16 -15 -6 0 -5 6 2 15 7 8 14 15 16 15 2 0 1 -7 -2
-15z m51 -15 c7 -11 -35 -30 -68 -30 -18 0 -15 4 13 19 41 23 47 24 55 11z m5
-34 c0 -2 -7 -7 -16 -10 -8 -3 -12 -2 -9 4 6 10 25 14 25 6z m4605 -96 c10
-31 -5 -90 -24 -91 -10 0 -11 -2 -3 -6 6 -2 12 -9 12 -14 0 -5 -6 -8 -12 -6
-7 1 -12 -4 -10 -11 1 -8 -2 -11 -8 -7 -6 4 -9 14 -6 23 2 10 10 43 16 75 12
59 24 72 35 37z m-79 -284 c-12 -38 -12 -44 1 -39 9 4 7 -6 -8 -31 -21 -36
-44 -50 -32 -19 4 11 3 14 -5 9 -7 -4 -10 -2 -8 6 3 7 7 26 10 41 4 15 11 25
16 22 6 -3 11 -1 11 4 2 12 5 26 9 39 1 4 2 11 1 15 -1 5 3 6 8 2 6 -3 5 -22
-3 -49z m-460 -445 c-8 -13 -56 -15 -56 -3 0 13 44 31 54 22 4 -5 5 -13 2 -19z
m90 -72 l29 -31 -29 -25 c-38 -32 -80 -26 -120 19 l-30 33 44 7 c24 4 48 12
54 18 15 15 19 13 52 -21z m-4421 -719 c3 -5 1 -10 -4 -10 -6 0 -11 5 -11 10
0 6 2 10 4 10 3 0 8 -4 11 -10z m220 -10 c-3 -5 -12 -10 -18 -10 -7 0 -6 4 3
10 19 12 23 12 15 0z m3452 -706 c-3 -3 -12 -4 -19 -1 -8 3 -5 6 6 6 11 1 17
-2 13 -5z"/>
<path d="M3112 8548 c-17 -17 -15 -39 3 -31 9 3 13 8 11 11 -3 3 -1 11 5 19
14 16 -3 17 -19 1z"/>
<path d="M3440 8429 c0 -5 5 -7 10 -4 6 3 10 8 10 11 0 2 -4 4 -10 4 -5 0 -10
-5 -10 -11z"/>
<path d="M2760 7419 c0 -5 5 -7 10 -4 6 3 10 8 10 11 0 2 -4 4 -10 4 -5 0 -10
-5 -10 -11z"/>
<path d="M2678 7193 c7 -3 16 -2 19 1 4 3 -2 6 -13 5 -11 0 -14 -3 -6 -6z"/>
<path d="M6708 5323 c7 -3 16 -2 19 1 4 3 -2 6 -13 5 -11 0 -14 -3 -6 -6z"/>
<path d="M6679 5068 c0 -2 -2 -11 -4 -20 -5 -25 11 -23 18 2 3 11 1 20 -4 20
-5 0 -9 -1 -10 -2z"/>
<path d="M1260 5539 c0 -5 5 -7 10 -4 6 3 10 8 10 11 0 2 -4 4 -10 4 -5 0 -10
-5 -10 -11z"/>
<path d="M1288 5443 c7 -3 16 -2 19 1 4 3 -2 6 -13 5 -11 0 -14 -3 -6 -6z"/>
<path d="M5765 5150 c4 -6 11 -8 16 -5 14 9 11 15 -7 15 -8 0 -12 -5 -9 -10z"/>
<path d="M5367 5236 c-3 -8 1 -20 8 -26 8 -7 12 -17 8 -24 -3 -6 -1 -6 7 1 21
19 20 42 0 53 -13 7 -19 6 -23 -4z"/>
<path d="M5470 5206 c0 -9 5 -16 10 -16 6 0 10 4 10 9 0 6 -4 13 -10 16 -5 3
-10 -1 -10 -9z"/>
<path d="M5255 5190 c-3 -5 -2 -10 4 -10 5 0 13 5 16 10 3 6 2 10 -4 10 -5 0
-13 -4 -16 -10z"/>
<path d="M5455 5164 c-17 -12 -18 -16 -5 -24 8 -5 19 -6 24 -3 6 4 5 8 -2 11
-10 3 -10 7 -1 18 15 18 9 17 -16 -2z"/>
<path d="M5386 5151 c-4 -5 3 -7 14 -4 23 6 26 13 6 13 -8 0 -17 -4 -20 -9z"/>
<path d="M5380 5120 c-9 -6 -10 -10 -3 -10 6 0 15 5 18 10 8 12 4 12 -15 0z"/>
<path d="M5215 5100 c-3 -6 1 -7 9 -4 18 7 21 14 7 14 -6 0 -13 -4 -16 -10z"/>
<path d="M5220 4964 c0 -8 5 -12 10 -9 6 4 8 11 5 16 -9 14 -15 11 -15 -7z"/>
<path d="M5263 4949 c2 -13 10 -25 18 -27 8 -3 17 -9 20 -15 4 -5 9 -5 13 2 4
6 3 11 -3 11 -6 0 -7 8 -4 18 6 15 5 15 -10 3 -15 -12 -17 -11 -17 2 0 9 -5
19 -10 22 -6 4 -9 -3 -7 -16z"/>
<path d="M5230 4922 c0 -13 50 -45 58 -38 3 3 1 6 -4 6 -6 0 -20 9 -32 20 -12
12 -22 17 -22 12z"/>
<path d="M6495 5189 c-10 -16 -3 -16 35 -3 l35 13 -32 0 c-17 1 -35 -4 -38
-10z"/>
<path d="M3309 5143 c-8 -9 -9 -14 -2 -10 6 4 13 1 16 -5 3 -7 4 -3 4 10 -1
26 -1 26 -18 5z"/>
<path d="M7012 5125 c-18 -13 -20 -19 -10 -35 11 -17 14 -18 29 -4 16 15 22
54 9 54 -3 0 -15 -7 -28 -15z m28 -9 c0 -3 -4 -8 -10 -11 -5 -3 -10 -1 -10 4
0 6 5 11 10 11 6 0 10 -2 10 -4z"/>
<path d="M5133 4545 c0 -8 4 -15 9 -15 4 0 8 7 8 15 0 8 -4 15 -8 15 -5 0 -9
-7 -9 -15z"/>
<path d="M5792 3581 c-6 -17 -9 -31 -6 -31 7 0 25 52 20 57 -2 2 -8 -10 -14
-26z"/>
<path d="M5512 9175 c-7 -14 -12 -34 -12 -43 0 -9 -9 -36 -20 -59 -18 -42 -16
-55 7 -32 19 19 33 0 33 -46 0 -44 0 -44 -29 -39 -25 5 -30 3 -33 -17 -2 -14
-9 -24 -19 -23 -21 2 -21 -26 0 -28 9 0 34 -2 56 -3 l40 -1 1 61 c0 33 2 99 4
148 4 93 -8 127 -28 82z"/>
<path d="M4313 9083 c9 -2 25 -2 35 0 9 3 1 5 -18 5 -19 0 -27 -2 -17 -5z"/>
<path d="M5256 9075 c-9 -26 -7 -32 5 -12 6 10 9 21 6 23 -2 3 -7 -2 -11 -11z"/>
<path d="M4135 8950 c-3 -5 -1 -10 4 -10 6 0 11 5 11 10 0 6 -2 10 -4 10 -3 0
-8 -4 -11 -10z"/>
<path d="M6341 8934 c0 -11 3 -14 6 -6 3 7 2 16 -1 19 -3 4 -6 -2 -5 -13z"/>
<path d="M4130 8929 c-18 -8 -21 -12 -11 -18 7 -5 18 -15 23 -22 8 -11 9 -10
4 3 -4 12 3 22 22 32 22 13 24 15 7 15 -11 0 -31 -5 -45 -10z"/>
<path d="M4756 8872 l-19 -27 24 22 c12 12 21 24 18 27 -2 2 -13 -8 -23 -22z"/>
<path d="M6330 8886 c0 -8 4 -17 9 -20 5 -4 7 3 4 14 -6 23 -13 26 -13 6z"/>
<path d="M3895 8852 c-11 -2 -24 -10 -28 -18 -4 -8 -14 -14 -22 -14 -8 0 -19
-8 -24 -17 -5 -10 -28 -28 -50 -40 l-40 -23 -7 22 c-6 20 -7 21 -20 4 -14 -19
-34 -14 -34 9 0 8 -11 17 -25 21 -14 3 -22 10 -19 15 3 5 0 9 -5 9 -6 0 -11
-9 -11 -20 0 -17 -12 -26 -23 -17 -2 1 -14 -6 -28 -15 -25 -16 -28 -15 -68 8
-44 25 -91 32 -91 14 0 -20 -2 -25 -13 -39 -9 -10 -7 -16 7 -26 10 -8 15 -18
12 -23 -3 -6 1 -13 10 -16 8 -3 13 -9 11 -14 -7 -10 14 -36 31 -40 80 -16 180
6 215 49 15 19 20 20 28 8 5 -7 9 -18 9 -23 0 -4 11 -5 25 -2 14 4 56 0 95 -8
77 -16 125 -8 128 22 2 18 2 148 0 169 -1 12 -20 13 -63 5z"/>
<path d="M6106 8773 c-6 -14 -5 -15 5 -6 7 7 10 15 7 18 -3 3 -9 -2 -12 -12z"/>
<path d="M2866 8761 c10 -39 35 -94 40 -88 3 2 -7 29 -21 58 -13 30 -22 43
-19 30z"/>
<path d="M2992 8686 c7 -8 21 -23 30 -35 10 -11 22 -21 28 -21 6 0 -4 16 -21
35 -18 19 -36 35 -41 35 -5 0 -3 -6 4 -14z"/>
<path d="M3938 8633 c7 -3 16 -2 19 1 4 3 -2 6 -13 5 -11 0 -14 -3 -6 -6z"/>
<path d="M2706 8591 c4 -25 19 -92 35 -150 15 -58 26 -107 24 -109 -2 -2 -19
1 -38 6 -32 9 -35 8 -32 -9 3 -15 -2 -19 -24 -19 -16 0 -34 7 -41 15 -7 8 -18
15 -26 15 -7 0 -16 5 -20 12 -5 8 0 9 14 6 12 -4 20 -2 17 2 -6 10 -185 64
-185 56 0 -1 56 -59 125 -129 104 -105 125 -132 125 -157 0 -19 5 -30 14 -30
9 0 12 -8 9 -24 -3 -15 1 -25 10 -29 12 -4 14 0 11 18 -3 19 -1 23 11 19 9 -4
17 1 21 12 3 11 15 36 26 57 10 20 16 37 12 37 -3 0 1 12 10 26 10 14 19 47
21 73 3 43 1 48 -15 44 -19 -5 -40 47 -86 217 -14 50 -21 67 -18 41z m-130
-241 c0 -14 -4 -16 -16 -10 -9 5 -22 15 -28 23 -9 11 -6 13 16 9 19 -2 28 -10
28 -22z m38 -26 c23 -9 20 -23 -4 -17 -11 3 -20 9 -20 14 0 11 3 11 24 3z m65
-45 c35 -28 22 -32 -14 -3 -16 13 -25 24 -20 24 6 -1 21 -10 34 -21z m117 -38
c-28 -55 -42 -66 -32 -26 4 17 2 25 -6 25 -7 1 2 14 21 30 19 16 36 28 39 26
2 -2 -8 -27 -22 -55z"/>
<path d="M2935 8607 c-5 -11 -2 -31 8 -50 12 -25 16 -29 22 -16 3 9 0 32 -8
50 -13 29 -16 31 -22 16z"/>
<path d="M2730 8605 c0 -15 113 -235 118 -230 6 6 -6 35 -50 120 -11 22 -29
57 -40 78 -17 33 -28 46 -28 32z"/>
<path d="M3352 8545 c9 -10 21 -16 28 -13 7 2 -1 10 -16 17 -27 12 -28 11 -12
-4z"/>
<path d="M6543 8236 c4 -10 7 -22 7 -27 0 -5 8 -9 18 -8 10 0 12 3 4 6 -6 2
-10 8 -8 11 2 4 -3 14 -12 22 -14 13 -15 12 -9 -4z"/>
<path d="M6515 8210 c-3 -5 -1 -10 4 -10 6 0 11 5 11 10 0 6 -2 10 -4 10 -3 0
-8 -4 -11 -10z"/>
<path d="M2661 8073 c-1 -6 -4 -20 -7 -30 -5 -17 -5 -17 6 0 6 10 9 23 6 30
-3 9 -5 9 -5 0z"/>
<path d="M5322 7995 c0 -16 2 -22 5 -12 2 9 2 23 0 30 -3 6 -5 -1 -5 -18z"/>
<path d="M2666 7983 l-19 -25 24 7 c31 10 32 11 22 28 -6 12 -11 11 -27 -10z"/>
<path d="M2884 7886 c-4 -11 -2 -21 7 -27 18 -11 24 5 10 28 -9 17 -10 17 -17
-1z"/>
<path d="M3080 7776 c0 -9 5 -16 10 -16 6 0 10 4 10 9 0 6 -4 13 -10 16 -5 3
-10 -1 -10 -9z"/>
<path d="M7050 6993 c0 -5 5 -15 10 -23 8 -12 10 -11 10 8 0 12 -4 22 -10 22
-5 0 -10 -3 -10 -7z"/>
<path d="M7276 6667 c3 -10 9 -15 12 -12 3 3 0 11 -7 18 -10 9 -11 8 -5 -6z"/>
<path d="M1513 5913 c-15 -5 -18 -43 -4 -43 11 0 24 19 27 38 2 13 -3 14 -23
5z"/>
<path d="M1360 5906 c0 -2 7 -6 15 -10 8 -3 15 -1 15 4 0 6 -7 10 -15 10 -8 0
-15 -2 -15 -4z"/>
<path d="M2246 5608 c-21 -21 -43 -38 -48 -38 -6 0 -4 -8 3 -17 12 -15 12 -16
-3 -11 -10 4 -19 1 -22 -8 -9 -23 -7 -34 5 -34 6 0 9 7 5 15 -3 9 0 15 9 15 9
0 23 13 33 28 10 17 24 28 35 26 9 -1 14 2 11 8 -4 6 -1 14 6 18 7 4 10 14 8
21 -3 10 -16 2 -42 -23z m17 -3 c-3 -9 -8 -14 -10 -11 -3 3 -2 9 2 15 9 16 15
13 8 -4z"/>
<path d="M2340 5550 c0 -5 5 -10 11 -10 5 0 7 5 4 10 -3 6 -8 10 -11 10 -2 0
-4 -4 -4 -10z"/>
<path d="M2017 5153 c-4 -3 -7 -16 -6 -27 0 -12 3 -15 6 -8 2 6 8 10 13 7 4
-3 10 4 13 15 5 19 -12 28 -26 13z"/>
<path d="M2596 4293 c-6 -14 -5 -15 5 -6 7 7 10 15 7 18 -3 3 -9 -2 -12 -12z"/>
<path d="M2600 4060 c0 -5 5 -10 10 -10 6 0 10 5 10 10 0 6 -4 10 -10 10 -5 0
-10 -4 -10 -10z"/>
<path d="M2535 4050 c3 -5 8 -10 11 -10 2 0 4 5 4 10 0 6 -5 10 -11 10 -5 0
-7 -4 -4 -10z"/>
<path d="M2565 4020 c-3 -5 1 -10 10 -10 9 0 13 5 10 10 -3 6 -8 10 -10 10 -2
0 -7 -4 -10 -10z"/>
<path d="M7056 3752 c-9 -11 -34 -25 -56 -32 -22 -7 -37 -16 -35 -21 7 -10 47
1 63 18 20 20 34 16 23 -6 -6 -10 -7 -21 -4 -25 4 -3 13 12 21 35 16 47 12 57
-12 31z"/>
<path d="M7068 3628 c-6 -17 1 -38 13 -38 5 0 9 11 9 25 0 26 -14 34 -22 13z"/>
<path d="M7021 3594 c0 -11 3 -14 6 -6 3 7 2 16 -1 19 -3 4 -6 -2 -5 -13z"/>
<path d="M6820 3540 c0 -5 5 -10 11 -10 5 0 7 5 4 10 -3 6 -8 10 -11 10 -2 0
-4 -4 -4 -10z"/>
</g>
</svg>
